<?xml version="1.0" encoding="utf-8"?>
<!-- Generator: Adobe Illustrator 22.1.0, SVG Export Plug-In . SVG Version: 6.00 Build 0)  -->
<svg version="1.1" id="Слой_1" xmlns="http://www.w3.org/2000/svg" xmlns:xlink="http://www.w3.org/1999/xlink" x="0px" y="0px"
	 viewBox="0 0 735 117" style="enable-background:new 0 0 735 117;" xml:space="preserve">
<style type="text/css">
	.st0{stroke:#FFFFFF;stroke-miterlimit:10;}
	.st1{fill:#FFFFFF;}
	.st2{fill:none;stroke:#FFFFFF;stroke-miterlimit:10;}
	.st3{fill:none;stroke:#FFFFFF;stroke-width:3;stroke-miterlimit:10;}
</style>
<g>
	<path class="st0" d="M72.5,98.4c-0.1,0.4-0.3,0.7-0.6,1s-0.8,0.4-1.4,0.4c-2,0.1-3.6-0.6-4.9-2c-1-1.1-1.7-2.6-2.2-4.6
		c-0.3-1-0.4-2.2-0.4-3.3c0-0.2,0-1.3,0-3.1c0-1.2,0-2.3-0.1-3.1c-0.1-0.8-0.4-1.6-0.8-2.4c-0.3-0.6-0.7-1.2-1.3-1.8
		c-1.3,0.4-2.6,1-4.1,1.8c-1.2,0.7-2.2,1.3-3,2l-1.9,11.1c0,0.2,0.1,0.5,0.5,0.8c0.5,0.4,0.8,0.6,0.8,0.6c0,0,0,0.1,0,0.1
		c0,0,0,0.1,0,0.1c0,0.1-0.2,0.2-0.4,0.2c-0.1,0-0.6,0-1.3,0c-0.7,0-1.2,0-1.5,0c-0.5,0-1.2,0.1-2.1,0.2c-0.4,0-0.6,0-0.7,0
		c-0.2,0-0.4-0.1-0.3-0.2c0-0.1,0-0.1,0.1-0.2c0.1-0.1,0.4-0.3,1-0.7c0.5-0.3,0.8-0.6,0.8-0.9l4.1-23.5c0-0.2-0.1-0.5-0.5-0.8
		c-0.3-0.2-0.6-0.4-0.8-0.7c0-0.1,0-0.1,0-0.2c0-0.1,0.2-0.2,0.4-0.2c0.1,0,0.6,0,1.3,0c0.7,0,1.2,0,1.5,0c0.6,0,1.2-0.1,1.8-0.1
		c0.6-0.1,0.9-0.1,1-0.1c0.3,0,0.4,0.1,0.4,0.2c0,0.1-0.1,0.2-0.1,0.2c0,0-0.4,0.3-1,0.7c-0.5,0.3-0.8,0.6-0.8,0.9l-1.8,10.4
		c0.6-0.4,1.2-0.8,1.8-1.1c0.8-0.4,1.5-0.8,2.2-1.1c2.5-1,4.9-2.1,7.4-3.1c1.3-0.7,2.2-1.3,2.9-1.9c0.9-0.8,1.4-1.6,1.5-2.5
		c0.1-0.6,0-1.1-0.2-1.4c-0.3-0.3-0.7-0.5-1.2-0.4c-0.2,0-0.5,0.1-0.8,0.3c-0.1,0.1-0.3,0.2-0.4,0.3c-0.1,0.1-0.2,0.1-0.3,0.1
		c-0.1,0-0.1-0.1-0.1-0.2c0-0.5,0.3-1,0.9-1.6c0.7-0.8,1.6-1.2,2.7-1.2c1,0,1.7,0.3,2.2,1s0.6,1.6,0.5,2.5c-0.2,1.1-0.6,2.1-1.3,2.9
		c-0.6,0.8-1.5,1.5-2.8,2.3c-0.9,0.5-1.9,1-3.2,1.5c-0.9,0.4-2,0.7-3.1,1.1c0.8,0.8,1.5,1.6,1.9,2.2c0.5,0.8,1,1.7,1.4,2.7
		c0.5,1.1,0.7,2.5,0.8,4.1c-0.1,1.9-0.2,3.8-0.2,5.7c0.1,1.5,0.4,2.7,1,3.6c0.7,1.1,1.6,1.7,2.7,1.7c0.1,0,0.1-0.1,0.1-0.2
		c-0.1-0.2-0.1-0.3-0.1-0.5c0.1-0.2,0.2-0.4,0.4-0.5c0.2-0.1,0.4-0.2,0.7-0.2c0.3,0,0.6,0.1,0.8,0.3C72.4,97.9,72.5,98.1,72.5,98.4z
		"/>
	<path class="st0" d="M92.5,93.9c0,0-0.2,0.2-0.6,0.4c-0.2,0.1-0.4,0.2-0.6,0.4c-0.2,0.2-0.4,0.3-0.6,0.5c0,0-0.1,0.2-0.3,0.3
		c-0.1,0.1-0.2,0.1-0.2,0.1c-0.1,0-0.2,0-0.3-0.1c-0.5-0.3-1-0.7-1.3-1.3c-0.6-0.8-0.8-1.5-0.6-2.4c-0.6,0.9-1.5,1.7-2.7,2.5
		c-1.5,1-2.9,1.5-4.4,1.5c-2.6,0.1-4.5-0.7-5.7-2.2c-1-1.3-1.3-3-0.9-5.1c0.2-1.2,0.6-2.4,1.1-3.5c0.4-0.9,1-1.9,1.7-2.9
		c0.3-0.4,0.9-1.2,1.9-2.5c0.1-0.1,0-0.3-0.2-0.5c-0.2-0.1-0.5-0.2-0.9-0.4c-0.2-0.1-0.5-0.2-0.7-0.3c-0.1,0-0.2-0.1-0.1-0.2
		c0-0.1,0.1-0.2,0.4-0.2c0.2-0.1,0.5-0.1,0.8-0.2c0.5-0.1,1-0.2,1.5-0.4c0.6-0.2,1.1-0.4,1.6-0.6c0.5-0.2,1-0.5,1.5-0.7
		c0.1,0,0.2-0.1,0.2-0.1c0.1,0,0.1,0,0.1,0.1c0,0.1,0,0.2,0,0.3c-0.1,0.1-0.1,0.2-0.2,0.3c-1.5,1.5-2.8,3.1-3.8,4.6
		c-1.1,1.8-1.9,3.7-2.2,5.5c-0.4,2.1-0.1,3.8,0.7,5.1c0.8,1.3,2.1,2,3.9,1.9c1.2,0,2.4-0.4,3.7-1.1c1.2-0.7,2.2-1.5,2.7-2.5l2.1-12
		c0-0.2-0.1-0.5-0.4-0.8c-0.3-0.2-0.5-0.4-0.7-0.6c-0.1-0.1-0.1-0.2-0.1-0.2c0-0.2,0.2-0.2,0.5-0.2c0.2,0,0.6,0,1.2,0
		c0.7,0,1.1,0,1.2,0c0.6,0,1,0,1.4-0.1c0.3,0,0.7-0.1,1.1-0.1c0.3,0,0.4,0.1,0.3,0.2c0,0.1-0.1,0.2-0.2,0.3
		c-0.4,0.2-0.7,0.4-0.9,0.6c-0.4,0.3-0.7,0.6-0.7,0.8l-2,11.5c-0.2,1.1,0,2,0.5,2.6c0.2,0.2,0.6,0.5,1.2,0.9c0.1,0,0.1,0.1,0.1,0.3
		C92.6,93.8,92.6,93.9,92.5,93.9z"/>
	<path class="st0" d="M119.6,83.1c-0.6,3.5-2.2,6.4-4.7,8.8c-2.4,2.3-5,3.5-7.8,3.6c-1,0-1.9-0.1-2.6-0.4c-0.6-0.3-1.3-0.7-2-1.4
		l-0.7,4.2c-0.1,0.7-0.1,1.3,0.2,1.8c0.1,0.2,0.3,0.5,0.7,0.8c0.1,0.1,0.2,0.2,0.1,0.3c0,0.1-0.1,0.2-0.4,0.3
		c-0.2,0.1-0.5,0.2-0.7,0.3c-0.5,0.2-1,0.5-1.7,0.8c-0.4,0.2-0.9,0.5-1.3,0.8c-0.4,0.3-0.8,0.5-1.2,0.8c-0.1,0.1-0.2,0.1-0.3,0.1
		c-0.1,0-0.2-0.1-0.1-0.4c0.4-0.7,0.8-1.4,1.1-2.1c0.3-0.7,0.5-1.4,0.7-2.1l3.1-17.5c0.2-1.1,0-2-0.7-2.7c-0.3-0.3-0.8-0.6-1.5-1
		c-0.1,0-0.1-0.1-0.1-0.2c0,0,0-0.1,0.1-0.1c0-0.1,0.1-0.1,0.1-0.1c0.1-0.1,0.2-0.2,0.4-0.3c0.3-0.2,0.5-0.3,0.7-0.5
		c0.3-0.2,0.4-0.4,0.6-0.5s0.3-0.2,0.4-0.4c0.1-0.1,0.1-0.1,0.3-0.1c0.1,0,0.1,0,0.2,0.1c0.5,0.4,1,0.9,1.5,1.5c0.7,0.9,1,1.8,1,2.7
		c0.7-1,1.7-1.9,2.8-2.7c1.6-1.2,3.3-1.8,5.1-1.8c1.8,0,3.3,0.4,4.5,1.3c1,0.8,1.7,1.8,2.2,3.1C119.7,81,119.8,82.1,119.6,83.1z
		 M116.5,84.6c0.3-1.9,0-3.5-0.9-4.9c-0.9-1.5-2.3-2.2-4.1-2.1c-1.5,0-2.9,0.5-4.1,1.4c-1,0.7-2,1.7-2.8,2.9l-2,11.4l1-0.8
		c0.3-0.2,0.5-0.4,0.7-0.6c0.2-0.2,0.4-0.4,0.6-0.7c0.1-0.1,0.2-0.1,0.2-0.1c0.2,0,0.2,0.1,0.1,0.3c0,0-0.1,0.2-0.2,0.4
		c-0.1,0.2-0.1,0.4-0.2,0.6c-0.1,0.3,0,0.6,0,0.9c0.1,0.3,0.4,0.6,0.9,0.8c0.5,0.2,1,0.3,1.6,0.3c2.2-0.1,4.1-1,5.7-2.8
		S116,87.4,116.5,84.6z"/>
	<path class="st0" d="M141.7,89.8c-0.6,1.1-1.6,2.2-3.2,3.2c-1.9,1.2-3.8,1.8-5.8,1.8c-1.3,0-2.4-0.1-3.3-0.3
		c-1.1-0.3-2-0.7-2.9-1.4c-0.5,0.5-0.9,1-1.4,1.5c-0.5,0.7-0.8,1.2-0.9,1.5c-0.1,0.4,0,0.6,0.2,0.8c0.1,0.1,0.4,0.1,0.7,0.1
		c0.1,0,0.2,0,0.3,0c0.1,0,0.2-0.1,0.3-0.1c0.1,0,0.1,0,0.2,0c0.1,0.1,0.1,0.2,0,0.3c-0.1,0.3-0.4,0.6-0.7,0.9
		c-0.4,0.3-0.8,0.5-1.3,0.5c-0.5,0-0.9-0.1-1.1-0.5c-0.3-0.3-0.3-0.7-0.3-1.3c0.1-0.4,0.3-0.9,0.7-1.5c0.1-0.2,0.9-1.1,2.3-2.8
		c-0.9-1-1.5-2-1.9-3.2c-0.4-1.3-0.5-2.7-0.2-4.1c0.5-2.7,1.9-5.1,4.2-7.2c2.3-2,4.9-3.1,7.8-3.2c1.2,0,2.3,0.2,3.4,0.7
		c0.6,0.3,1.2,0.6,1.9,0.8c0.1,0,0.3,0.1,0.5,0.1c0.2,0,0.5,0,0.7,0l0.7-0.1c0.2,0,0.2,0.1,0.2,0.2c0,0.1-0.1,0.2-0.2,0.2
		c-0.3,0.1-0.5,0.3-0.8,0.5c-0.4,0.3-0.8,0.6-1.1,0.9c-1.6,1.4-3.6,3.3-5.8,5.7c-2.2,2.3-4.4,4.7-6.4,7c0.8,0.5,1.5,0.9,2.4,1.2
		c1,0.3,2,0.5,3.1,0.4c1.6,0,2.9-0.3,4-0.9c0.8-0.4,1.7-1.1,2.8-2.2c0.1-0.1,0.2-0.2,0.4-0.4c0.1-0.1,0.3-0.2,0.4-0.2
		c0.2,0,0.3,0.2,0.2,0.4C141.9,89.5,141.8,89.6,141.7,89.8z M137.8,78.4c0.1-0.8-0.2-1.4-1.1-1.8c-0.7-0.3-1.6-0.5-2.7-0.5
		c-2,0.1-3.9,0.9-5.5,2.5c-1.5,1.5-2.4,3.3-2.8,5.3c-0.2,1.2-0.1,2.4,0.3,3.6c0.4,1,0.9,1.9,1.6,2.6c1.2-1.3,2.2-2.4,2.8-3.1
		c1.1-1.2,2-2.2,2.8-3c1-1,1.9-2.1,2.9-3.1C137.2,79.8,137.7,79,137.8,78.4z"/>
	<path class="st0" d="M162.9,88.7c0,0.2-0.1,0.4-0.3,0.7c-0.6,1.1-1.6,2.1-3,3c-1.8,1.2-3.8,1.9-6,1.9c-3.1,0.1-5.5-0.7-7.1-2.4
		c-1.6-1.7-2.1-4.1-1.6-7.2c0.5-2.7,2-5.1,4.5-7.2c2.5-2.1,5.3-3.1,8.3-3.2c1.7,0,3.2,0.3,4.3,1.1c1.2,0.9,1.8,2,1.5,3.4
		c-0.2,1.2-0.8,2.2-1.8,3s-2.1,1.3-3.3,1.3c-1,0-1.9-0.2-2.5-0.8c-0.7-0.6-1-1.3-0.8-2.2c0.1-0.6,0.4-1.1,0.9-1.7
		c0.5-0.5,0.9-0.7,1.3-0.9c0.2-0.1,0.3,0,0.4,0c0.1,0.1,0.1,0.2,0,0.3c-0.1,0.2-0.2,0.3-0.2,0.5c-0.1,0.3-0.2,0.5-0.3,0.7
		c0,0.1,0,0.3,0,0.3c0,0.4,0.2,0.7,0.5,0.9c0.3,0.2,0.8,0.3,1.3,0.3c0.7,0,1.3-0.3,1.8-0.7c0.5-0.5,0.8-1,0.9-1.7
		c0.2-1-0.2-1.8-1.2-2.3c-0.9-0.5-1.9-0.7-3.2-0.7c-2.4,0.1-4.5,1-6.3,2.7c-1.8,1.7-2.9,3.8-3.4,6.3c-0.4,2.2,0.1,4,1.3,5.6
		c1.3,1.6,3.2,2.3,5.5,2.3c1.5,0,2.8-0.3,3.8-0.7c1.1-0.4,2.2-1.2,3.4-2.3c0,0,0.1-0.1,0.3-0.3c0.1-0.1,0.3-0.2,0.4-0.3
		c0.1,0,0.2,0,0.3,0C162.9,88.4,162.9,88.5,162.9,88.7z"/>
	<path class="st0" d="M188.4,83.5c-0.5,2.7-2,5.1-4.6,7.1c-2.5,1.9-5.2,3-8.1,3c-3.1,0.1-5.5-0.8-7.3-2.7c-1.8-1.9-2.4-4.2-1.9-7
		c0.5-2.7,2-5.1,4.5-7.1c2.5-2,5.3-3,8.3-3.1c3-0.1,5.5,0.8,7.2,2.8C188.3,78.4,188.9,80.7,188.4,83.5z M186.4,84.4
		c0.4-2.2-0.4-4.2-2.2-6.1c-1.9-2-4.2-2.9-6.9-2.8c-2.1,0.1-4,0.8-5.7,2.1c-1.7,1.3-2.7,2.9-3,4.7c-0.5,2.6,0.3,4.8,2.1,6.8
		c1.8,1.9,4.1,2.8,6.7,2.7c2.1-0.1,4-0.7,5.6-2C184.9,88.5,186,86.7,186.4,84.4z"/>
</g>
<g>
	<path class="st0" d="M569.4,82.4c0.2,3.2-0.1,6-1,8.5c-0.9,2.6-2,3.9-3.5,3.9c-0.5,0-0.9-0.2-1.3-0.7c-0.4-0.5-0.6-1.2-0.7-2.1
		c0-0.5,0-1,0.2-1.4c0.1-0.4,0.4-0.6,0.6-0.6c0.1,0,0.3,0,0.4,0.1c0.1,0.1,0.2,0.2,0.3,0.3c0.1,0.1,0,0.2,0,0.2
		c-0.2,0.2-0.3,0.4-0.3,0.5c-0.1,0.2-0.1,0.6-0.1,1c0,0.6,0.2,1,0.5,1.3c0.2,0.3,0.5,0.4,0.8,0.4c0.9,0,1.6-1.1,2.2-3.2
		c0.5-2.1,0.7-4.5,0.5-7.2c-0.1-2.3-0.5-4.2-1.2-5.9c-0.7-1.8-1.5-2.7-2.5-2.7c-0.8,0-1.4,0.5-1.9,1.3c-0.5,0.9-0.8,2-0.7,3.4l1,17
		c0.1,2.1,0,3.8-0.3,5.2c-0.3,1.4-0.8,2-1.4,2c-0.3,0-0.5-0.1-0.7-0.3c-0.2-0.2-0.3-0.5-0.3-1c0-0.3,0-0.5,0-0.7
		c0-0.2,0.1-0.4,0.2-0.5c0-0.1,0.1-0.1,0.1-0.1c0.1,0,0.1,0.1,0.1,0.2c0,0.2,0,0.4,0,0.5c0,0.2,0.1,0.4,0.2,0.5
		c0.1,0.2,0.2,0.3,0.4,0.2c0,0,0.1,0,0.1,0c0.3-0.1,0.5-0.5,0.6-1.2c0.1-0.7,0.1-1.7,0-2.9l-1.2-20.9c-0.1,0.1-0.3,0.1-0.5,0.2
		c-0.2,0-0.4,0.1-0.6,0.1c-0.2,0-0.5-0.1-0.7-0.4c-0.2-0.3-0.3-0.7-0.3-1.1c0-0.8,0.1-1.2,0.5-1.4c0.1,0,0.1,0,0.1,0
		c0.1,0,0.2,0,0.2,0.1c0.1,0.1,0.1,0.1,0.1,0.2c0,0.1,0,0.1-0.1,0.2c-0.1,0.1-0.1,0.3-0.1,0.6c0,0.1,0,0.1,0,0.2c0,0,0,0.1,0,0.1
		c0.1,0.2,0.1,0.3,0.3,0.4c0.1,0.1,0.3,0.1,0.4,0.1c0.1,0,0.1,0,0.2,0c0.2,0,0.6-0.3,1.1-0.8c0.7-0.6,1.2-1.1,1.6-1.4
		c0.7-0.5,1.4-0.8,2.1-0.8c1.2,0,2.3,0.8,3.2,2.5C568.7,78,569.2,80,569.4,82.4z"/>
	<path class="st0" d="M574.9,97.3c0.1,0.1,0.1,0.2,0.1,0.3c0,0.1-0.1,0.2-0.2,0.2c-0.1,0-0.2,0-0.3,0c-0.4,0-0.6-0.1-0.7-0.1
		c-0.2,0-0.4,0-0.5,0c-0.1,0-0.3,0.1-0.5,0.1c-0.1,0-0.2-0.1-0.2-0.2c0-0.1,0-0.2,0.1-0.3c0.1-0.2,0.2-0.4,0.3-0.5
		c0.1-0.2,0.2-0.4,0.2-0.6l-0.7-11.4c0-0.6-0.1-0.9-0.3-1.1c-0.2-0.1-0.3-0.2-0.4-0.2c-0.1,0-0.1-0.1-0.1-0.2c0-0.1,0-0.1,0.1-0.2
		s0.1-0.2,0.3-0.3c0.2-0.2,0.3-0.4,0.4-0.5c0.3-0.3,0.5-0.6,0.6-0.8c0.1-0.2,0.2-0.4,0.3-0.4c0-0.1,0.1-0.1,0.1-0.1
		c0.1,0,0.1,0.1,0.1,0.3c0,0.3,0,0.7,0,1.2c0,0.6,0,1.3,0.1,2.1l0.7,11.8c0,0.2,0.1,0.4,0.2,0.6C574.6,97,574.8,97.2,574.9,97.3z
		 M573.5,76.8c0,0.4,0,0.7-0.2,1c-0.1,0.3-0.3,0.4-0.5,0.4c-0.2,0-0.4-0.1-0.6-0.4c-0.2-0.3-0.3-0.6-0.3-1.1s0-0.8,0.2-1
		c0.1-0.3,0.3-0.4,0.5-0.4s0.4,0.1,0.6,0.5C573.4,76.1,573.5,76.4,573.5,76.8z"/>
	<path class="st0" d="M580,97.2c0.1,0.1,0.1,0.2,0.1,0.3c0,0.1-0.1,0.2-0.2,0.2c-0.1,0-0.2,0-0.3,0c-0.4-0.1-0.6-0.1-0.7-0.1
		c-0.2,0-0.4,0-0.5,0c-0.1,0-0.3,0.1-0.5,0.1c-0.1,0-0.2-0.1-0.2-0.2c0-0.1,0-0.2,0.1-0.3c0.1-0.2,0.2-0.4,0.3-0.5
		c0.1-0.2,0.2-0.4,0.2-0.6L577.1,78c0-0.3,0-0.6-0.1-0.8c0-0.2-0.1-0.3-0.2-0.2c-0.1,0-0.2,0.1-0.3,0.3c-0.1,0.2-0.2,0.3-0.3,0.4
		c-0.1,0.1-0.1,0-0.1-0.2c0-0.1,0-0.1,0-0.2c0-0.1,0.2-0.4,0.4-1c0.2-0.4,0.4-0.8,0.5-1c0.2-0.4,0.4-0.9,0.6-1.4
		c0.1-0.4,0.2-0.6,0.3-0.7c0,0,0,0,0.1-0.1c0,0,0,0,0,0c0.1,0,0.1,0.1,0.1,0.3c0,0.4,0,0.8,0,1.4c0,0.5,0,1.1,0.1,1.7l1.2,19.7
		c0,0.2,0.1,0.4,0.2,0.6C579.7,96.9,579.8,97.1,580,97.2z"/>
	<path class="st0" d="M589.2,94.1c0.1,1.1-0.1,2-0.6,2.7c-0.4,0.7-1,1.1-1.6,1.1c-0.3,0-0.9-0.2-1.8-0.7c-0.4-0.2-0.8-0.3-1.1-0.3
		c-0.3,0-0.6,0.1-0.8,0.3c-0.2,0.2-0.5,0.4-0.7,0.7c0,0-0.1,0.1-0.1,0.1c0,0-0.1,0-0.1-0.1l-0.1-0.2c0-0.1-0.1-0.1-0.1-0.2
		c0,0,0-0.1,0-0.1c0.1-0.2,0.1-0.4,0.2-0.6c0-0.2,0.1-0.4,0.1-0.5c0.1-0.8,0.3-1.6,0.4-2.4c0.1-0.8,0.3-1.5,0.4-2
		c0.2-0.7,0.3-1.4,0.6-2.2c0.4-1.5,0.8-2.8,1.2-3.7c0.4-1,0.9-2,1.5-3.3c-0.2,0-0.5-0.1-0.7-0.1c-0.5,0-1,0.1-1.4,0.3
		c-0.5,0.2-0.9,0.5-1.2,0.8c-0.4,0.3-0.7,0.7-1,1.2c-0.1,0.2-0.2,0.4-0.4,0.5c0,0.1-0.1,0.1-0.1,0.1c0,0,0,0,0-0.1
		c0-0.1,0-0.2,0-0.2c0-0.2,0.1-0.5,0.2-0.9c0.2-0.6,0.3-1,0.3-1.3c0.1-0.4,0.2-0.9,0.3-1.5c0.1-0.4,0.1-0.6,0.1-0.7
		c0,0,0-0.1,0.1-0.1c0,0,0,0,0,0c0,0,0.1,0,0.1,0.1c0.1,0.2,0.2,0.4,0.2,0.5c0.2,0.2,0.4,0.3,0.7,0.3l4.5-0.1c0.1,0,0.2,0,0.2,0.1
		c0,0.1,0,0.1-0.1,0.2c-0.5,0.9-0.7,1.4-0.8,1.5c-0.3,0.6-0.6,1.3-0.9,2c-0.4,0.8-0.7,1.6-0.9,2.2c-0.5,1.4-0.9,2.9-1.3,4.3
		c-0.4,1.5-0.7,2.8-0.8,3.9c0.2-0.2,0.3-0.4,0.5-0.5c0.2-0.1,0.4-0.2,0.6-0.2c0.3,0,0.6,0.1,1,0.4c0.9,0.5,1.4,0.8,1.7,0.8
		c0.4,0,0.8-0.2,1-0.5c0.2-0.3,0.3-0.8,0.3-1.3c0-0.3-0.1-0.6-0.2-0.8c-0.1-0.2-0.3-0.4-0.4-0.4c-0.1,0-0.2,0.1-0.3,0.2
		c-0.1,0.1-0.1,0.3-0.2,0.4c0,0.2,0,0.4,0,0.6c0,0.1,0,0.1,0,0.2c0,0-0.1,0-0.1,0c-0.1-0.1-0.2-0.3-0.3-0.5
		c-0.1-0.3-0.1-0.5-0.2-0.9c0-0.5,0.1-0.9,0.2-1.2c0.2-0.3,0.4-0.5,0.7-0.5c0.3,0,0.6,0.2,0.8,0.7S589.2,93.4,589.2,94.1z"/>
	<path class="st0" d="M604.1,96.2c0,0-0.1,0.2-0.2,0.4c-0.1,0.1-0.1,0.2-0.2,0.4c-0.1,0.1-0.1,0.3-0.2,0.4c0,0,0,0.1-0.1,0.3
		c0,0.1,0,0.1-0.1,0.1c0,0-0.1,0-0.1-0.1c-0.3-0.3-0.5-0.6-0.7-1.1c-0.3-0.7-0.5-1.4-0.6-2.1c-0.2,0.8-0.4,1.5-0.8,2.1
		c-0.5,0.8-1.1,1.2-1.7,1.2c-1.1,0-2-0.6-2.7-2c-0.6-1.2-0.9-2.7-1-4.5c-0.1-1.1-0.1-2,0-3c0.1-0.8,0.2-1.6,0.4-2.5
		c0.1-0.3,0.2-1,0.5-2.1c0-0.1,0-0.3-0.2-0.4c-0.1-0.1-0.2-0.2-0.4-0.4c-0.1-0.1-0.2-0.2-0.3-0.3c0,0-0.1-0.1-0.1-0.2
		c0-0.1,0-0.1,0.1-0.2c0.1,0,0.2-0.1,0.3-0.1c0.2-0.1,0.4-0.2,0.6-0.4c0.2-0.2,0.4-0.3,0.6-0.5c0.2-0.2,0.4-0.4,0.5-0.6
		c0,0,0.1-0.1,0.1-0.1c0,0,0,0,0.1,0.1c0,0.1,0,0.1,0,0.2c0,0.1,0,0.2,0,0.2c-0.5,1.3-0.8,2.6-1,4c-0.3,1.6-0.3,3.2-0.2,4.7
		c0.1,1.8,0.4,3.3,0.9,4.4c0.5,1.2,1.1,1.7,1.9,1.7c0.5,0,1-0.3,1.4-0.9c0.4-0.6,0.7-1.3,0.8-2.1l-0.6-10.4c0-0.2-0.1-0.4-0.3-0.7
		c-0.1-0.2-0.3-0.4-0.4-0.6c0-0.1-0.1-0.1-0.1-0.2c0-0.1,0-0.2,0.2-0.2c0.1,0,0.2,0,0.5,0c0.3,0,0.5,0,0.5,0c0.2,0,0.4,0,0.6,0
		c0.1,0,0.3,0,0.5-0.1c0.1,0,0.2,0.1,0.2,0.2c0,0.1,0,0.2,0,0.2c-0.1,0.2-0.2,0.4-0.3,0.5c-0.1,0.3-0.2,0.5-0.2,0.7l0.6,10
		c0.1,0.9,0.2,1.7,0.5,2.2c0.1,0.2,0.3,0.5,0.6,0.8c0,0,0.1,0.1,0.1,0.2C604.1,96.1,604.1,96.2,604.1,96.2z"/>
	<path class="st0" d="M613.4,86.7c0.1,1.7,0,3.3-0.2,4.8c-0.2,1.5-0.6,3-1.1,4.3c0,0,0,0,0.1,0c0,0,0.1,0,0.2,0c0.2,0,0.4,0,0.5-0.1
		c0.2,0,0.3-0.2,0.5-0.4c0.1-0.2,0.2-0.4,0.3-0.5c0,0,0,0,0.1-0.1c0,0,0,0,0,0c0.1,0,0.1,0.1,0.1,0.3c0,0.2,0,0.4,0,0.6
		c0,0.2,0,0.4,0,0.5c0,0.2,0,0.3,0,0.5c0,0.2,0,0.4,0.1,0.6c0,0.2,0,0.3-0.1,0.3c0,0-0.1,0-0.1-0.1c-0.2-0.2-0.3-0.3-0.4-0.4
		c-0.1-0.1-0.3-0.2-0.4-0.2c-0.1,0-0.3,0-0.6,0c-0.2,0-0.3,0-0.4,0c-0.1,0-0.2,0-0.4,0.1c-0.2,0.1-0.3,0-0.3-0.3c0-0.1,0-0.1,0-0.2
		c0.3-1,0.5-1.7,0.6-2.4c0.2-1,0.4-1.9,0.5-2.8c0.1-1,0.1-2.1,0.1-3.2c-0.1-1.8-0.4-3.2-0.9-4.3c-0.5-1.2-1.1-1.7-1.9-1.7
		c-0.5,0-0.9,0.3-1.3,0.8c-0.3,0.5-0.6,1.1-0.8,2l0.6,10.4c0,0.2,0.1,0.4,0.2,0.6c0.1,0.2,0.3,0.4,0.4,0.5c0.1,0.1,0.1,0.2,0.1,0.3
		c0,0.1,0,0.2-0.1,0.2c0,0-0.2,0-0.4,0c-0.2,0-0.5,0-0.7,0c-0.2,0-0.4,0-0.5,0c-0.1,0-0.3,0.1-0.5,0.1c-0.1,0-0.2-0.1-0.2-0.2
		c0-0.1,0-0.2,0.1-0.3c0-0.1,0.1-0.3,0.2-0.5c0.2-0.3,0.3-0.5,0.3-0.8l-0.6-10c-0.1-1-0.3-1.7-0.6-2.3c-0.1-0.3-0.4-0.5-0.7-0.9
		c-0.1,0-0.1-0.1-0.1-0.2c0-0.1,0-0.2,0-0.2c0.1-0.1,0.1-0.2,0.2-0.3c0-0.1,0.1-0.2,0.2-0.4c0.1-0.2,0.1-0.3,0.2-0.4
		c0-0.1,0.1-0.2,0.1-0.3c0-0.1,0.1-0.1,0.1-0.1c0,0,0.1,0,0.1,0c0.2,0.3,0.5,0.8,0.8,1.4c0.4,0.8,0.6,1.5,0.7,2.1
		c0.2-0.8,0.5-1.5,0.8-2.1c0.5-0.9,1.1-1.4,1.6-1.4c1.1,0,2,0.7,2.6,2.2C613,83.9,613.4,85.2,613.4,86.7z"/>
	<path class="st0" d="M624.7,95.7c0,0-0.1,0.1-0.1,0.2c-0.1,0.2-0.2,0.3-0.2,0.4c-0.1,0.1-0.1,0.3-0.2,0.4C624,96.9,624,97,624,97
		c0,0.1-0.1,0.2-0.1,0.2c0,0-0.1,0-0.2-0.1c-0.2-0.2-0.3-0.6-0.6-1.1c-0.2-0.6-0.4-1.2-0.5-1.7c-0.2,1-0.6,1.8-1,2.4
		s-0.9,0.9-1.5,0.9c-1.1,0-2.1-0.7-2.9-2.3c-0.8-1.5-1.3-3.5-1.4-5.9c-0.1-2.4,0.1-4.5,0.7-6.2c0.7-1.9,1.6-2.8,2.8-2.9
		c0.5,0,0.9,0.1,1.4,0.4c0.4,0.3,0.7,0.7,1.1,1.3l-0.3-4.8c0-0.3,0-0.6-0.1-0.8c0-0.2-0.1-0.3-0.2-0.2c-0.1,0-0.2,0.1-0.3,0.3
		c-0.2,0.2-0.2,0.4-0.3,0.4c0,0-0.1,0.1-0.1,0.1c-0.1,0-0.1-0.1-0.1-0.2c0-0.1,0-0.1,0-0.2c0-0.1,0.1-0.3,0.3-0.7
		c0.3-0.7,0.5-1.1,0.6-1.3c0.2-0.4,0.4-0.9,0.6-1.4c0.1-0.4,0.2-0.6,0.3-0.7c0,0,0,0,0.1-0.1c0,0,0,0,0,0c0.1,0,0.1,0.1,0.1,0.3
		c0,0.7,0,1.2,0,1.3c0,0.6,0,1.2,0.1,1.8l1,17c0,0.7,0.1,1.2,0.3,1.7c0.2,0.4,0.4,0.8,0.7,1.1c0.1,0.1,0.1,0.1,0.1,0.2
		C624.7,95.6,624.7,95.7,624.7,95.7z M622.4,91.2l-0.3-5.7c-0.1-1.4-0.4-2.4-0.9-3.2c-0.5-0.7-1.1-1-1.8-1c-0.8,0-1.5,0.7-2,2.2
		c-0.5,1.4-0.6,2.9-0.5,4.7c0.1,2.1,0.5,3.9,1.1,5.3c0.7,1.5,1.5,2.3,2.4,2.3c0.6,0,1.1-0.4,1.5-1.1
		C622.3,93.7,622.5,92.5,622.4,91.2z"/>
	<path class="st0" d="M644.3,77.5c0.1,1.5,0,3.6-0.4,6.2c-0.3,1.9-0.7,4.2-1.2,7c-0.4,1.9-0.8,3.8-1.1,5.7c-0.1,0.4-0.1,0.8-0.2,1.2
		c-0.1,0.4-0.1,0.7-0.1,0.7c0,0.1,0,0.1-0.1,0.1c0,0-0.1,0-0.1-0.1c0-0.1-0.2-0.6-0.5-1.6c-0.4-1.3-0.9-3.1-1.6-5.4
		c-0.6-2.3-1.2-4.2-1.5-5.6c-0.2,1.2-0.4,2.3-0.6,3.5c-0.3,1.4-0.5,2.8-0.8,4.2c-0.3,1.7-0.5,2.8-0.6,3.5c0,0.1,0,0.4-0.1,0.9
		c0,0.3-0.1,0.5-0.1,0.6c0,0.1,0,0.1-0.1,0.1c0,0,0,0-0.1-0.1c0,0,0-0.1-0.1-0.3c-0.1-0.3-0.2-0.6-0.2-0.8c-0.5-1.9-1-3.7-1.5-5.6
		c-0.8-3.1-1.5-5.7-2-7.8c-0.7-3-1.1-5.3-1.1-6.9c-0.1-1.1,0-2.1,0.2-2.9c0.2-1,0.6-1.5,1.1-1.5c0.3,0,0.6,0.2,0.8,0.5
		c0.2,0.3,0.3,0.6,0.3,0.9c0,0.1,0,0.2,0,0.2c0,0.1-0.1,0.1-0.1,0c-0.1-0.1-0.1-0.2-0.2-0.2c-0.1-0.1-0.2-0.1-0.4-0.1
		c-0.3,0-0.4,0.3-0.5,0.9c-0.1,0.5-0.1,1-0.1,1.7c0.1,0.9,0.2,1.8,0.4,2.9c0.2,0.8,0.4,1.8,0.6,3c0.2,1,0.5,2,0.7,2.9
		c0.3,1.3,0.6,2.5,1,3.8c0.2,0.9,0.5,1.9,0.8,3c0.2,0.6,0.3,1.2,0.5,1.8l1.8-9.7c-0.4-1.4-0.6-2.5-0.8-3.4c-0.2-1.1-0.4-2.2-0.4-3.2
		c-0.1-1.2,0-2.2,0.2-2.9c0.2-0.7,0.6-1,1.1-1.1c0.5,0,0.8,0.3,1.1,0.9c0.3,0.6,0.5,1.4,0.5,2.5c0,0.6,0,1.6-0.2,2.8
		c-0.1,1.2-0.3,2.3-0.5,3.2l3.2,11c0.3-1.2,0.6-2.6,0.9-4.2c0.4-2.2,0.7-4.2,0.9-6c0.3-2.4,0.3-4.3,0.3-5.8c-0.1-1-0.2-1.8-0.5-2.5
		c-0.3-0.8-0.6-1.2-1-1.2c-0.3,0-0.5,0.1-0.6,0.4c-0.1,0.2-0.2,0.7-0.1,1.2c0,0.2,0,0.2,0,0.2c0,0,0,0-0.1-0.1
		c-0.3-0.3-0.5-0.7-0.5-1.4c0-0.8,0.1-1.3,0.5-1.8c0.3-0.3,0.6-0.5,1-0.5c0.7,0,1.2,0.5,1.7,1.5C644,74.8,644.2,76,644.3,77.5z
		 M638.1,77.1c0-0.6-0.1-1-0.2-1.4c-0.2-0.5-0.4-0.7-0.6-0.7c-0.2,0-0.4,0.2-0.5,0.6c-0.1,0.4-0.1,0.9-0.1,1.4
		c0,0.8,0.2,1.6,0.3,2.4c0.2,0.7,0.4,1.3,0.6,2c0.2-0.8,0.3-1.5,0.3-2.1C638.1,78.4,638.1,77.6,638.1,77.1z"/>
	<path class="st0" d="M655.2,95.9c0,0.1,0.1,0.2,0.1,0.3c0,0.1,0,0.2-0.1,0.2c0,0-0.1,0-0.3,0c-0.2,0-0.3,0-0.5,0
		c-0.1,0-0.2,0-0.4,0.1c-0.1,0-0.2,0.1-0.2,0.1c-0.1,0-0.2-0.1-0.2-0.2c0,0,0-0.1,0-0.2c0-0.1,0.1-0.3,0.1-0.5c0-0.2,0-0.3,0-0.6
		l-0.1-1.6c-0.2,0.9-0.5,1.7-1,2.4c-0.6,0.8-1.2,1.2-1.8,1.2c-0.9,0-1.7-0.5-2.4-1.5c-0.7-1.1-1.2-2.5-1.3-4.2
		c-0.1-1.7,0.2-3.2,0.8-4.4c0.6-1.1,1.4-1.7,2.4-1.7c0.5,0,0.9,0.2,1.4,0.5c0.5,0.3,0.8,0.8,1.1,1.3c0-0.5-0.2-1.2-0.6-2.2
		c-0.4-1.2-0.9-2.1-1.4-2.8c-0.7-0.9-1.3-1.4-2-1.4c-0.4,0-0.7,0.2-1,0.5c-0.3,0.4-0.4,0.9-0.4,1.5c0,0.4,0.1,0.7,0.2,0.9
		c0.1,0.2,0.3,0.4,0.4,0.3c0.1,0,0.2-0.1,0.3-0.2c0.1-0.1,0.1-0.3,0.1-0.5c0-0.1,0-0.3-0.1-0.4c0-0.1-0.1-0.3-0.1-0.4
		c0-0.1,0-0.1,0-0.2c0,0,0,0,0.1,0c0.2,0,0.3,0.2,0.5,0.4c0.2,0.3,0.2,0.5,0.3,0.9c0,0.5-0.1,1-0.3,1.3s-0.5,0.5-0.8,0.5
		c-0.3,0-0.7-0.2-0.9-0.6c-0.3-0.4-0.4-1-0.4-1.8c-0.1-1,0.2-1.7,0.7-2.3c0.5-0.5,1-0.7,1.7-0.7c0.7,0,1.4,0.4,2,1.2
		c0.7,0.8,1.3,1.9,1.8,3.2c0.3,1,0.6,2.1,0.9,3.6c0.2,0.9,0.3,2.1,0.5,3.7c0.2,1.6,0.3,2.7,0.4,3.2c0,0.3,0.1,0.6,0.2,0.8
		C655.2,95.7,655.2,95.8,655.2,95.9z M653.4,90.5c-0.1-1.3-0.4-2.3-0.9-3c-0.5-0.8-1.2-1.1-2-1.1c-0.7,0-1.2,0.4-1.7,1.3
		c-0.4,0.8-0.6,1.8-0.6,3c0.1,1.3,0.4,2.3,0.9,3.2c0.6,0.9,1.2,1.3,1.9,1.3c0.8,0,1.4-0.5,1.9-1.3C653.3,92.9,653.5,91.8,653.4,90.5
		z"/>
	<path class="st0" d="M659.6,95.7c0.1,0.1,0.1,0.2,0.1,0.3c0,0.1-0.1,0.2-0.2,0.2c-0.1,0-0.2,0-0.3,0c-0.4-0.1-0.6-0.1-0.7-0.1
		c-0.2,0-0.4,0-0.5,0c-0.1,0-0.3,0.1-0.5,0.1c-0.1,0-0.2-0.1-0.2-0.2c0-0.1,0-0.2,0.1-0.3c0.1-0.2,0.2-0.4,0.3-0.5
		c0.1-0.2,0.2-0.4,0.2-0.6l-1.1-18.1c0-0.3,0-0.6-0.1-0.8s-0.1-0.3-0.2-0.2c-0.1,0-0.2,0.1-0.3,0.3c-0.1,0.2-0.2,0.3-0.3,0.4
		c-0.1,0.1-0.1,0-0.1-0.2c0-0.1,0-0.1,0-0.2c0-0.1,0.2-0.4,0.4-1c0.2-0.4,0.4-0.8,0.5-1c0.2-0.4,0.4-0.9,0.6-1.4
		c0.1-0.4,0.2-0.6,0.3-0.7c0,0,0,0,0.1-0.1c0,0,0,0,0,0c0.1,0,0.1,0.1,0.1,0.3c0,0.4,0,0.8,0,1.4c0,0.5,0,1.1,0.1,1.7l1.2,19.7
		c0,0.2,0.1,0.4,0.2,0.6C659.4,95.4,659.5,95.5,659.6,95.7z"/>
	<path class="st0" d="M670.4,94.8c0,0-0.1,0.1-0.1,0.2c-0.1,0.2-0.2,0.3-0.2,0.4c-0.1,0.1-0.1,0.3-0.2,0.4c-0.1,0.1-0.1,0.2-0.1,0.2
		c0,0.1-0.1,0.2-0.1,0.2c0,0-0.1,0-0.2-0.1c-0.1-0.2-0.3-0.6-0.6-1.1c-0.2-0.6-0.4-1.2-0.5-1.7c-0.2,1-0.6,1.8-1,2.4
		c-0.4,0.6-0.9,0.9-1.5,0.9c-1.1,0-2.1-0.7-2.9-2.3c-0.8-1.5-1.3-3.5-1.4-5.9c-0.1-2.4,0.1-4.5,0.7-6.2c0.7-1.9,1.6-2.8,2.8-2.9
		c0.5,0,0.9,0.1,1.4,0.4c0.4,0.3,0.7,0.7,1.1,1.3l-0.3-4.8c0-0.3,0-0.6-0.1-0.8s-0.1-0.3-0.2-0.2c-0.1,0-0.2,0.1-0.3,0.3
		c-0.2,0.2-0.2,0.4-0.3,0.4c0,0-0.1,0.1-0.1,0.1c-0.1,0-0.1-0.1-0.1-0.2c0-0.1,0-0.1,0-0.2c0-0.1,0.1-0.3,0.3-0.7
		c0.3-0.7,0.5-1.1,0.6-1.3c0.2-0.4,0.4-0.9,0.6-1.4c0.1-0.4,0.2-0.6,0.3-0.7c0,0,0,0,0.1-0.1c0,0,0,0,0,0c0.1,0,0.1,0.1,0.1,0.3
		c0,0.7,0,1.2,0,1.3c0,0.6,0,1.2,0.1,1.8l1,17c0,0.7,0.1,1.2,0.3,1.7c0.2,0.4,0.4,0.8,0.7,1.1c0.1,0.1,0.1,0.1,0.1,0.2
		C670.5,94.7,670.4,94.8,670.4,94.8z M668.1,90.3l-0.3-5.7c-0.1-1.4-0.4-2.4-0.9-3.2c-0.5-0.7-1.1-1-1.8-1c-0.8,0-1.5,0.7-2,2.2
		c-0.5,1.4-0.6,2.9-0.5,4.7c0.1,2.1,0.5,3.9,1.1,5.3c0.7,1.5,1.5,2.3,2.4,2.3c0.6,0,1.1-0.4,1.5-1.1C668,92.8,668.2,91.7,668.1,90.3
		z"/>
	<path class="st0" d="M675.6,73.6c0,0.5,0,1-0.2,1.4c-0.2,0.4-0.4,0.6-0.6,0.6c-0.2,0-0.4-0.1-0.6-0.3c-0.2-0.2-0.3-0.5-0.3-0.9
		c0-0.4,0-0.7,0.1-0.9c0,0,0,0,0.1,0c0,0,0.1,0.1,0.1,0.2c0,0.1,0,0.2,0.1,0.3c0.1,0.1,0.2,0.2,0.3,0.2c0,0,0.1,0,0.1,0
		c0.1,0,0.2-0.1,0.2-0.2c0.1-0.1,0.1-0.3,0.1-0.6c0-0.3-0.1-0.5-0.2-0.7c-0.1-0.2-0.3-0.2-0.5-0.2c-0.3,0-0.5,0.3-0.7,0.8
		c-0.1,0.5-0.2,1.2-0.1,2.1l0.3,4.5c0.2,0,0.4,0,0.6,0c0.2,0,0.4,0,0.6-0.1c0.1,0,0.1,0.1,0.1,0.2l0,0.6c0,0.2,0,0.3-0.1,0.3
		c0,0-0.2,0-0.4,0c-0.3,0-0.5,0-0.8,0l0.8,14.4c0.1,1.9,0,3.6-0.2,4.9c-0.2,1-0.5,1.8-0.9,2.4c-0.2,0.3-0.5,0.6-0.8,0.9
		c0,0-0.1,0-0.1,0c0,0-0.1-0.1-0.1-0.3c0-0.1,0-0.3,0-0.4c0-0.2-0.1-0.3-0.1-0.4c-0.1-0.2-0.1-0.4-0.1-0.6c0-0.2-0.1-0.3-0.1-0.4
		c0-0.1,0-0.1,0-0.2c0,0,0.1,0,0.1,0c0.1,0,0.2,0,0.3,0.1c0.4,0,0.6-0.3,0.8-1c0.3-0.9,0.3-2.6,0.2-4.8l-0.9-14.6
		c-0.2,0-0.4,0-0.5,0c-0.2,0-0.4,0-0.5,0.1c-0.1,0-0.1-0.1-0.1-0.3l0-0.5c0-0.2,0-0.3,0.1-0.3c0,0,0.2,0,0.4,0c0.2,0,0.5,0,0.7,0
		l-0.2-3.1c-0.1-1.4,0-2.6,0.4-3.6c0.3-1,0.8-1.5,1.5-1.5c0.4,0,0.7,0.2,1,0.5C675.4,72.6,675.5,73,675.6,73.6z"/>
	<path class="st0" d="M683.3,81.5c0,0.7,0,1.2-0.2,1.6c-0.2,0.4-0.4,0.6-0.7,0.6c-0.2,0-0.4,0-0.6-0.2c-0.2-0.1-0.3-0.3-0.3-0.5
		c0,0,0-0.1,0-0.2c0-0.1,0-0.1,0.1-0.1c0.1,0,0.2,0,0.3-0.1s0.2-0.2,0.2-0.3c0.1-0.2,0.1-0.5,0.1-0.8c0-0.4-0.1-0.7-0.3-0.9
		c-0.2-0.3-0.5-0.4-0.8-0.4c-0.4,0-0.8,0.4-1.2,1.1c-0.3,0.6-0.6,1.4-0.7,2.3l0.6,10.4c0,0.2,0.1,0.4,0.2,0.6
		c0.1,0.2,0.2,0.4,0.4,0.5c0.1,0.1,0.1,0.2,0.1,0.3c0,0.1-0.1,0.2-0.2,0.2c-0.1,0-0.2,0-0.3,0c-0.4,0-0.6-0.1-0.7-0.1
		c-0.2,0-0.4,0-0.5,0c-0.1,0-0.3,0.1-0.5,0.1c-0.1,0-0.2-0.1-0.2-0.2c0-0.1,0-0.2,0.1-0.4c0.1-0.2,0.2-0.3,0.2-0.4
		c0.2-0.3,0.2-0.5,0.2-0.8l-0.6-10c0-0.8-0.2-1.4-0.4-1.9c-0.2-0.3-0.5-0.7-1-1.1c0,0,0,0,0-0.1c0-0.1,0-0.1,0-0.2l0.4-0.8
		c0.1-0.1,0.1-0.3,0.2-0.4c0,0,0-0.1,0.1-0.3c0-0.1,0.1-0.1,0.1-0.1c0,0,0.1,0,0.1,0c0.4,0.4,0.6,0.8,0.8,1.1
		c0.4,0.7,0.7,1.4,0.7,2.1c0.2-0.9,0.5-1.7,0.9-2.4c0.5-0.7,1-1.1,1.6-1.1c0.5,0,1,0.2,1.3,0.7C683.1,80.2,683.3,80.8,683.3,81.5z"
		/>
	<path class="st0" d="M693.5,94.5c0,0-0.1,0.2-0.2,0.4c-0.1,0.1-0.1,0.2-0.2,0.4c-0.1,0.1-0.1,0.3-0.2,0.4c0,0,0,0.1-0.1,0.3
		c0,0.1,0,0.1-0.1,0.1s-0.1,0-0.1-0.1c-0.3-0.3-0.5-0.6-0.7-1.1c-0.3-0.7-0.5-1.4-0.6-2.1c-0.2,0.8-0.4,1.5-0.8,2.1
		c-0.5,0.8-1.1,1.2-1.7,1.2c-1.1,0-2-0.6-2.7-2c-0.6-1.2-0.9-2.7-1-4.5c-0.1-1.1-0.1-2,0-3c0.1-0.8,0.2-1.6,0.4-2.5
		c0.1-0.3,0.2-1,0.5-2.1c0-0.1,0-0.3-0.2-0.4c-0.1-0.1-0.2-0.2-0.4-0.4c-0.1-0.1-0.2-0.2-0.3-0.3c0,0-0.1-0.1-0.1-0.2
		c0-0.1,0-0.1,0.1-0.2c0.1,0,0.2-0.1,0.3-0.1c0.2-0.1,0.4-0.2,0.6-0.4c0.2-0.2,0.4-0.3,0.6-0.5s0.4-0.4,0.5-0.6c0,0,0.1-0.1,0.1-0.1
		c0,0,0,0,0.1,0.1c0,0.1,0,0.1,0,0.2c0,0.1,0,0.2,0,0.2c-0.5,1.3-0.8,2.6-1,4c-0.3,1.6-0.3,3.2-0.2,4.7c0.1,1.8,0.4,3.3,0.9,4.4
		c0.5,1.2,1.1,1.7,1.9,1.7c0.5,0,1-0.3,1.4-0.9c0.4-0.6,0.7-1.3,0.8-2.1l-0.6-10.4c0-0.2-0.1-0.4-0.3-0.7c-0.1-0.2-0.3-0.4-0.4-0.6
		c0-0.1-0.1-0.1-0.1-0.2c0-0.1,0-0.2,0.2-0.2c0.1,0,0.2,0,0.5,0c0.3,0,0.5,0,0.5,0c0.2,0,0.4,0,0.6,0c0.1,0,0.3,0,0.5-0.1
		c0.1,0,0.2,0.1,0.2,0.2c0,0.1,0,0.2,0,0.2c-0.1,0.2-0.2,0.4-0.3,0.5c-0.1,0.3-0.2,0.5-0.2,0.7l0.6,10c0.1,0.9,0.2,1.7,0.5,2.2
		c0.1,0.2,0.3,0.5,0.6,0.8c0,0,0.1,0.1,0.1,0.2C693.5,94.4,693.5,94.4,693.5,94.5z M688.5,75.7c0,0.4,0,0.7-0.2,1
		c-0.1,0.3-0.3,0.4-0.5,0.4c-0.2,0-0.4-0.1-0.6-0.4c-0.2-0.3-0.2-0.6-0.3-1c0-0.4,0-0.7,0.2-1c0.1-0.3,0.3-0.4,0.5-0.4
		c0.2,0,0.4,0.1,0.5,0.4C688.4,75,688.5,75.3,688.5,75.7z M691.3,75.7c0,0.4,0,0.7-0.2,1c-0.1,0.3-0.3,0.4-0.5,0.4
		c-0.2,0-0.4-0.1-0.6-0.4c-0.2-0.3-0.2-0.6-0.3-1c0-0.4,0-0.7,0.2-1c0.1-0.3,0.3-0.4,0.5-0.4c0.2,0,0.4,0.1,0.5,0.4
		C691.1,74.9,691.2,75.3,691.3,75.7z"/>
	<path class="st0" d="M703.1,91.3c0,0.2,0,0.4,0,0.6c-0.1,0.9-0.4,1.8-0.9,2.5c-0.6,1.1-1.4,1.6-2.3,1.6c-1.3,0-2.4-0.7-3.3-2.2
		c-0.9-1.5-1.4-3.6-1.6-6.3c-0.1-2.3,0.2-4.4,1-6.2c0.8-1.8,1.8-2.7,3.1-2.7c0.7,0,1.4,0.3,2,1c0.6,0.8,1,1.8,1.1,3
		c0.1,1-0.1,1.9-0.4,2.6c-0.3,0.7-0.7,1.1-1.2,1.1c-0.4,0-0.8-0.2-1.2-0.7c-0.4-0.5-0.6-1.1-0.6-1.9c0-0.5,0-1,0.2-1.4
		c0.1-0.4,0.3-0.6,0.4-0.7c0.1,0,0.1,0,0.2,0c0,0.1,0.1,0.1,0,0.2c0,0.2,0,0.3,0,0.4c0,0.2,0,0.4,0,0.6c0,0.1,0,0.2,0,0.3
		c0.1,0.4,0.2,0.6,0.3,0.8c0.2,0.2,0.4,0.3,0.6,0.3c0.3,0,0.5-0.2,0.7-0.6c0.2-0.4,0.2-0.9,0.2-1.5c-0.1-0.9-0.3-1.5-0.8-2
		c-0.4-0.4-0.9-0.7-1.4-0.7c-1,0-1.8,0.8-2.3,2.2c-0.5,1.5-0.8,3.3-0.6,5.5c0.1,1.9,0.5,3.5,1.3,4.8c0.8,1.4,1.6,2.1,2.6,2
		c0.6,0,1.1-0.2,1.5-0.5c0.4-0.4,0.8-1,1.2-1.9c0,0,0-0.1,0.1-0.3c0-0.1,0.1-0.2,0.1-0.3c0,0,0.1,0,0.1,0S703.1,91.2,703.1,91.3z"/>
	<path class="st0" d="M711.9,84.8c0.1,1.7,0,3.3-0.2,4.8c-0.2,1.5-0.6,3-1.1,4.3c0,0,0,0,0.1,0c0,0,0.1,0,0.2,0c0.2,0,0.4,0,0.5-0.1
		c0.2,0,0.3-0.2,0.5-0.4c0.1-0.2,0.2-0.4,0.3-0.4c0-0.1,0.1-0.1,0.1-0.1c0,0,0.1,0.1,0.1,0.2c0,0.2,0,0.4,0,0.7s0,0.4,0,0.5
		c0,0.2,0,0.5,0.1,0.7c0,0.3,0.1,0.4,0.1,0.5c0,0.2,0,0.3-0.1,0.3c0,0-0.1,0-0.1-0.1c-0.1-0.2-0.3-0.3-0.4-0.4
		c-0.1-0.1-0.3-0.1-0.4-0.2c-0.1,0-0.3,0-0.6,0c-0.2,0-0.3,0-0.4,0c-0.1,0-0.2,0-0.4,0.1c-0.1,0-0.1,0-0.2,0c-0.1,0-0.1,0-0.1-0.1
		c0-0.1,0-0.1,0-0.2c0-0.1,0-0.2,0.1-0.3c0.3-1,0.5-1.7,0.6-2.4c0.2-1,0.4-1.9,0.5-2.8c0.1-1,0.1-2.1,0.1-3.2
		c-0.1-1.8-0.4-3.2-0.9-4.3c-0.5-1.2-1.1-1.7-1.9-1.7c-0.5,0-0.9,0.3-1.3,0.9c-0.3,0.5-0.6,1.1-0.8,2l0.6,10.4
		c0,0.2,0.1,0.4,0.2,0.6c0.1,0.2,0.2,0.3,0.4,0.5c0.1,0.1,0.1,0.2,0.1,0.3c0,0.1-0.1,0.2-0.2,0.2c-0.1,0-0.2,0-0.3,0
		c-0.4,0-0.6-0.1-0.7-0.1c-0.2,0-0.4,0-0.5,0c-0.1,0-0.3,0.1-0.5,0.1c-0.1,0-0.2-0.1-0.2-0.2c0-0.1,0-0.2,0.1-0.3
		c0.1-0.2,0.2-0.4,0.3-0.5c0.1-0.2,0.2-0.4,0.2-0.6l-1.1-18.1c0-0.3,0-0.6-0.1-0.8c0-0.2-0.1-0.3-0.2-0.2c-0.1,0-0.2,0.1-0.3,0.3
		c-0.1,0.2-0.2,0.3-0.3,0.4c-0.1,0.1-0.1,0-0.1-0.2c0-0.1,0-0.1,0-0.2c0-0.1,0.2-0.4,0.4-1c0.2-0.4,0.4-0.8,0.5-1
		c0.2-0.4,0.4-0.9,0.6-1.4c0.1-0.4,0.2-0.6,0.3-0.7c0,0,0,0,0.1-0.1c0,0,0,0,0,0c0.1,0,0.1,0.1,0.1,0.3c0,0.4,0,0.8,0,1.4
		c0,0.5,0,1.1,0.1,1.7l0.5,7.8c0.2-0.8,0.5-1.5,0.8-2c0.5-0.8,1-1.2,1.6-1.3c1.1,0,2,0.7,2.6,2.2C711.5,82,711.8,83.3,711.9,84.8z"
		/>
	<path class="st0" d="M717.4,79.7c0,0.2,0,0.3-0.1,0.3c0,0-0.2,0-0.4,0c-0.3,0-0.5,0-0.8,0l0.7,11.2c0,0.8,0.2,1.5,0.5,2
		c0.1,0.2,0.3,0.5,0.6,0.9c0.1,0.1,0.1,0.1,0.1,0.2c0,0.1,0,0.1-0.1,0.2c0,0.1-0.1,0.1-0.2,0.2c-0.1,0.1-0.1,0.2-0.2,0.3
		c-0.2,0.3-0.2,0.5-0.3,0.6c0,0.1-0.1,0.1-0.1,0.1c0,0-0.1,0-0.1-0.1c-0.3-0.3-0.5-0.7-0.8-1.4c-0.3-0.9-0.5-2-0.6-3.3L714.9,80
		c-0.2,0-0.4,0-0.5,0c-0.2,0-0.4,0-0.5,0.1c-0.1,0-0.1-0.1-0.1-0.3l0-0.5c0-0.2,0-0.3,0.1-0.3c0,0,0.2,0,0.4,0c0.2,0,0.5,0,0.7,0
		l-0.1-1.3c0-0.7-0.1-1-0.3-1.1c-0.1,0-0.2,0-0.2,0c-0.1,0-0.1-0.1-0.1-0.2c0-0.1,0-0.1,0-0.2c0.1-0.2,0.2-0.4,0.4-0.7
		c0.1-0.2,0.3-0.5,0.4-0.8c0.2-0.4,0.3-0.7,0.4-0.9c0.1-0.3,0.2-0.5,0.3-0.7c0-0.1,0-0.1,0.1-0.1c0,0,0.1,0.1,0.1,0.3
		c0,0.3,0,0.6,0,0.9c0,0.7,0,1.4,0.1,2.2L716,79c0.2,0,0.4,0,0.6,0c0.2,0,0.4,0,0.6-0.1c0.1,0,0.1,0.1,0.1,0.2L717.4,79.7z"/>
	<path class="st0" d="M728,91.3c-0.1,1-0.4,1.9-1,2.7c-0.6,1-1.4,1.5-2.2,1.5c-0.5,0-1-0.1-1.4-0.3c-0.5-0.2-1-0.7-1.4-1.2
		c-0.1,0.4-0.3,0.8-0.4,1.3c-0.1,0.6-0.2,1-0.2,1.3c0,0.3,0.1,0.5,0.2,0.7c0.1,0.1,0.2,0.1,0.3,0.1c0,0,0.1,0,0.1,0
		c0,0,0.1,0,0.1-0.1c0,0,0,0,0.1,0c0,0,0.1,0.1,0,0.3c0,0.3-0.1,0.5-0.2,0.7c-0.1,0.3-0.3,0.4-0.5,0.5c-0.2,0-0.4-0.1-0.5-0.4
		c-0.1-0.3-0.2-0.6-0.3-1.1c0-0.4,0-0.8,0.1-1.3c0-0.1,0.2-1,0.6-2.4c-0.5-0.9-0.9-1.8-1.2-2.8c-0.3-1.1-0.5-2.3-0.6-3.6
		c-0.1-2.4,0.2-4.4,0.9-6.2c0.7-1.7,1.7-2.6,2.9-2.7c0.5,0,1,0.2,1.5,0.6c0.3,0.3,0.6,0.5,0.9,0.7c0.1,0,0.1,0.1,0.2,0.1
		s0.2,0,0.3,0l0.3,0c0.1,0,0.1,0,0.1,0.2c0,0.1,0,0.1-0.1,0.2c-0.1,0.1-0.2,0.3-0.3,0.5c-0.1,0.3-0.3,0.5-0.4,0.8
		c-0.5,1.2-1.1,2.8-1.8,4.8s-1.3,4-1.8,6c0.4,0.5,0.8,0.8,1.1,1.1c0.5,0.3,0.9,0.4,1.4,0.4c0.7,0,1.2-0.3,1.6-0.7
		c0.3-0.3,0.6-1,0.9-1.8c0-0.1,0.1-0.2,0.1-0.3s0.1-0.2,0.2-0.1c0.1,0,0.1,0.1,0.1,0.3C728,91,728,91.2,728,91.3z M724.9,81.4
		c0-0.7-0.3-1.2-0.7-1.5c-0.3-0.3-0.7-0.5-1.2-0.5c-0.9,0-1.5,0.7-2,2.1c-0.4,1.3-0.6,2.8-0.5,4.6c0.1,1.1,0.3,2.1,0.6,3.1
		c0.3,0.9,0.6,1.6,1,2.3c0.3-1.1,0.6-2,0.8-2.7c0.3-1,0.6-1.9,0.8-2.6c0.3-0.9,0.6-1.8,0.8-2.7C724.8,82.6,724.9,81.9,724.9,81.4z"
		/>
</g>
<g>
	<line class="st1" x1="360.6" y1="4.7" x2="342.9" y2="41.8"/>
	<path class="st1" d="M360.7,4.8c-0.5,3.5-1.5,6.9-2.6,10.1c-0.5,1.6-1.2,3.2-1.8,4.8c-0.7,1.6-1.4,3.1-2.1,4.7
		c-0.8,1.5-1.5,3.1-2.3,4.6c-0.9,1.5-1.6,3-2.6,4.5c-1.8,2.9-3.8,5.8-6.2,8.4l-0.3-0.1c2.8-6.2,5.8-12.4,8.7-18.6
		c3-6.2,5.9-12.4,9-18.5L360.7,4.8z"/>
</g>
<g>
	<path class="st1" d="M384.2,39.9c-2.2-1.9-2.6-4.4-4.1-6.6c-7.1-9.9-13.7-19.5-19.4-29.2"/>
	<path class="st1" d="M384.1,40c-0.9-0.4-1.7-1-2.3-1.7c-0.7-0.7-1.2-1.5-1.7-2.2c-0.5-0.7-1-1.3-1.6-1.9c-0.6-0.6-1.2-1.3-1.8-2
		c-1.2-1.3-2.3-2.8-3.5-4.1c-1.1-1.4-2.1-2.9-3.2-4.4c-1-1.5-2-3-2.9-4.5c-0.9-1.6-1.8-3.1-2.6-4.7c-1.6-3.2-3.1-6.6-4-10.2l0.3-0.2
		c3.7,6.1,7.6,12.1,11.7,18c2,3,4.1,5.9,6.1,8.8l1.5,2.2c0.5,0.7,1,1.5,1.4,2.3c0.7,1.6,1.5,3.3,2.8,4.5L384.1,40z"/>
</g>
<g>
	<path class="st1" d="M388.1,45.8c-0.6-1-1.3-1.9-1.9-2.9"/>
	<path class="st1" d="M388,45.9c-1,0.3-1.7,0.4-2.1,0.4c-0.5,0-0.8-0.2-0.9-0.4c-0.2-0.2-0.2-0.6,0-1c0.2-0.5,0.5-1,1.2-1.8l0.3-0.2
		c0.4,0.4,0.7,0.9,1.1,1.4c0.3,0.5,0.6,1,0.8,1.5L388,45.9z"/>
</g>
<g>
	<line class="st1" x1="342.9" y1="41.8" x2="364.9" y2="41.8"/>
	<path class="st1" d="M342.9,41.7c1.8-1.1,3.7-1.6,5.5-2c1.8-0.4,3.7-0.5,5.5-0.5c1.8,0,3.7,0.2,5.5,0.6c1.8,0.4,3.7,0.9,5.5,2V42
		c-3.7,0.1-7.3,0.1-11,0.1c-3.7-0.1-7.3,0-11-0.1V41.7z"/>
</g>
<g>
	<path class="st1" d="M375.5,46.2c4.5-0.2,8.4-0.2,12.5-0.4"/>
	<path class="st1" d="M375.5,46.1c1-1.1,2-1.7,3-2.1c1-0.4,2.1-0.6,3.1-0.6c1,0,2.1,0.1,3.2,0.5c1.1,0.4,2.1,0.9,3.2,1.9l0,0.3
		c-2.1,0.2-4.2,0.2-6.3,0.3c-2.1,0-4.2,0.1-6.3,0L375.5,46.1z"/>
</g>
<g>
	<path class="st1" d="M358.6,46.8c5.3-0.5,10.4-0.2,15.7-0.5"/>
	<path class="st1" d="M358.6,46.6c1.2-1.2,2.5-1.8,3.9-2.2c1.3-0.4,2.7-0.6,4-0.6c1.3,0,2.6,0.2,3.9,0.5c1.3,0.4,2.6,0.9,4,1.8
		l0,0.3c-2.6,0.3-5.2,0.3-7.9,0.4c-2.6,0-5.2,0-7.8,0.1L358.6,46.6z"/>
</g>
<g>
	<line class="st1" x1="353.9" y1="41.8" x2="335.4" y2="60.1"/>
	<path class="st1" d="M354,41.9c-0.8,2.3-1.9,4.2-3.2,6c-1.3,1.8-2.7,3.4-4.2,5c-1.5,1.5-3.2,2.9-5,4.2c-1.8,1.3-3.7,2.4-6,3.2
		l-0.2-0.2c3-3.1,6.1-6.2,9.1-9.2c3.1-3,6.2-6.1,9.3-9L354,41.9z"/>
</g>
<g>
	<path class="st1" d="M388.8,57.1c-0.6-0.6-1.1-1.1-1.7-1.7L388.8,57.1C388.7,57.1,388.7,57.1,388.8,57.1z"/>
	<path class="st1" d="M388.6,57.1c-0.7-0.4-1.5-0.6-2.1-0.5c-0.6,0.1-1.1,0.5-1.4,0.8l3.8-3.8l-0.1,3.5l-0.1,0
		C388.7,57,388.6,57,388.6,57.1z M388.9,57.2c0,0-0.1,0.1-0.1,0.1l-0.1,0l0,0l-1.8-1.6l0.4-0.4C387.9,55.9,388.4,56.6,388.9,57.2z"
		/>
</g>
<g>
	<path class="st1" d="M379.1,47.5c2.6,2.7,5.3,5.3,7.9,8L379.1,47.5C379.1,47.4,379.1,47.5,379.1,47.5z"/>
	<path class="st1" d="M379.3,47.4c1.1,0.4,2.1,0.9,3,1.3c0.9,0.5,1.8,0.9,2.5,1.5c0.8,0.5,1.5,1,2.2,1.6c0.7,0.6,1.3,1.1,2,1.8
		l-3.8,3.8c-0.7-0.7-1.3-1.4-1.9-2.1c-0.6-0.7-1.2-1.5-1.7-2.3c-0.5-0.8-1-1.7-1.5-2.5c-0.4-0.9-0.8-1.8-1.1-2.9L379.3,47.4
		L379.3,47.4z M379,47.6l0-0.1l-0.2-0.6l0.5,0.4c2.7,2.6,5.4,5.3,8.1,7.9l-0.4,0.4C384.2,53,381.5,50.3,379,47.6z"/>
</g>
<g>
	<path class="st1" d="M335.4,60.1c12,0.2,24.2,0.2,36,0"/>
	<path class="st1" d="M335.5,59.9c3-1.1,6-1.6,9-2c1.5-0.2,3-0.3,4.5-0.4c1.5-0.1,3-0.1,4.5-0.1c1.5,0,3,0.1,4.5,0.1
		c1.5,0.1,3,0.2,4.5,0.4c3,0.4,6,0.9,9,2l0,0.3c-6,0.1-12,0.1-18,0.1c-6-0.1-12,0-18-0.1L335.5,59.9z"/>
</g>
<g>
	<path class="st1" d="M390.6,63c-0.1,0-0.3,0-0.4,0.1c-4.4,0.6-8.9,1.6-13.3,2.4l17.8-2.8C393.4,62.6,392,62.8,390.6,63z"/>
	<path class="st1" d="M390.6,63.1l-0.4,0.1l0,0c-1.1,0.2-2.2,0.4-3.3,0.7c-1.1,0.3-2.1,0.8-3.2,1.2l-3.2,1.4
		c-1.1,0.5-2.1,0.9-3.2,1.3l-0.8-4.7c1.5-0.4,2.9-0.8,4.4-1c0.7-0.1,1.5-0.2,2.2-0.2l2.3-0.1l2.3,0.1l2.3,0.2
		c1.5,0.1,3.1,0.2,4.6,0.2l0.1,0.9c-0.7,0-1.4-0.1-2.1,0C392,63,391.3,63,390.6,63.1z M390.6,62.8l4.2-0.4l0,0.4l-8.9,1.5
		c-3,0.5-5.9,1-8.9,1.4l-0.1-0.5c4.4-0.8,8.8-1.7,13.3-2.3l0,0L390.6,62.8z"/>
</g>
<g>
	<path class="st1" d="M376.9,65.4l-4.9,0.8C373.7,66,375.3,65.7,376.9,65.4z"/>
	<path class="st1" d="M376.8,65.4c-0.6,0.1-1.2,0.3-1.8,0.5c-0.5,0.3-1,0.6-1.4,1c-0.3,0.4-0.6,0.8-0.7,1.1
		c-0.2,0.3-0.3,0.6-0.5,0.8l-0.8-5.3c0.2,0.2,0.4,0.4,0.7,0.6c0.2,0.2,0.6,0.5,1,0.8c0.4,0.3,1,0.5,1.6,0.5
		C375.5,65.5,376.2,65.5,376.8,65.4z M377.1,65.4c-0.8,0.1-1.6,0.3-2.4,0.6c-0.8,0.2-1.7,0.4-2.6,0.6l-0.1-0.6
		c0.9-0.1,1.8-0.2,2.6-0.3C375.5,65.5,376.3,65.5,377.1,65.4z"/>
</g>
<g>
	<line class="st1" x1="348.4" y1="60.1" x2="331.5" y2="81.4"/>
	<path class="st1" d="M348.5,60.2c-0.6,2.4-1.5,4.6-2.7,6.6c-1.1,2-2.4,3.9-3.8,5.7c-1.4,1.8-3,3.4-4.7,5c-1.7,1.5-3.5,3-5.8,4.1
		l-0.2-0.2c2.7-3.6,5.6-7.2,8.3-10.8c2.9-3.5,5.6-7.1,8.6-10.6L348.5,60.2z"/>
</g>
<g>
	<line class="st1" x1="384.9" y1="64.1" x2="398.3" y2="79.9"/>
	<path class="st1" d="M385.1,64c1.9,0.6,3.4,1.6,4.9,2.6c1.4,1.1,2.6,2.3,3.8,3.6c1.1,1.3,2.1,2.7,2.9,4.3c0.8,1.6,1.5,3.2,1.8,5.2
		l-0.2,0.2c-2.3-2.5-4.5-5.2-6.8-7.8c-2.2-2.7-4.4-5.3-6.6-8L385.1,64z"/>
</g>
<g>
	<line class="st1" x1="331.5" y1="81.4" x2="398.3" y2="79.9"/>
	<path class="st1" d="M331.5,81.3c5.5-1.2,11.1-1.9,16.6-2.4c2.8-0.3,5.6-0.4,8.3-0.6c2.8-0.1,5.6-0.2,8.3-0.3
		c2.8,0,5.6-0.1,8.4-0.1c2.8,0.1,5.6,0.1,8.4,0.2c5.6,0.2,11.2,0.7,16.7,1.6l0,0.3l-33.4,0.9l-33.4,0.6L331.5,81.3z"/>
</g>
<path class="st2" d="M361,80.8c-0.4,2.9-0.8,5.7-1.2,8.6"/>
<path class="st2" d="M368.3,84.8c-0.2,1.4-0.4,2.9-0.6,4.3"/>
<path class="st2" d="M368.8,80.5c-0.1,0.7-0.2,1.4-0.3,2.1"/>
<path class="st2" d="M367.9,89.1c16.6-1,33.1-2.1,49.7-3.1c4.6-0.3,9.3-0.6,13.9-0.9"/>
<path class="st2" d="M361.9,89.5c1.5-0.1,3-0.2,4.5-0.3"/>
<path class="st2" d="M327.4,91.8c5.5,0,11-0.9,16.5-0.9c4.3-0.3,8.2-0.6,12.8-1"/>
<line class="st2" x1="356.7" y1="89.8" x2="362.9" y2="89.1"/>
<line class="st2" x1="368.1" y1="89.1" x2="365.3" y2="89.1"/>
<g>
	<path class="st1" d="M389.6,2.1c-1,2-2,3.9-2.9,5.9c-2.2,4.4-4.4,8.7-6.6,13.1c-1.3,2.6-2.7,5.3-4,7.9"/>
	<path class="st1" d="M389.8,2.2c-0.2,2.7-0.8,5.2-1.6,7.6c-0.8,2.4-1.8,4.7-2.9,7c-1.1,2.2-2.4,4.4-3.9,6.5
		c-1.5,2.1-3.1,4.1-5.1,5.8l-0.3-0.1c2.1-4.5,4.4-9,6.6-13.5c2.3-4.5,4.5-9,6.9-13.4L389.8,2.2z"/>
</g>
<g>
	<line class="st1" x1="420.4" y1="45.9" x2="389.6" y2="1.5"/>
	<path class="st1" d="M420.3,45.9c-3.4-3.1-6.5-6.5-9.3-10c-1.5-1.7-2.8-3.5-4.2-5.3c-1.3-1.8-2.6-3.6-4-5.5
		c-1.2-1.9-2.5-3.7-3.7-5.6c-1.2-1.9-2.4-3.8-3.5-5.8c-2.3-3.9-4.4-7.9-6.1-12.2l0.2-0.2l15.5,22.1l15.3,22.3L420.3,45.9z"/>
</g>
<g>
	<line class="st1" x1="387.4" y1="46.9" x2="420.4" y2="45.9"/>
	<path class="st1" d="M387.4,46.7c2.7-1.1,5.5-1.8,8.2-2.2c2.7-0.5,5.5-0.7,8.2-0.8c2.8-0.1,5.5,0,8.3,0.3c2.8,0.3,5.5,0.8,8.3,1.7
		l0,0.3c-5.5,0.3-11,0.4-16.5,0.6c-5.5,0.1-11,0.3-16.5,0.3L387.4,46.7z"/>
</g>
<g>
	<path class="st1" d="M362.5,60c0.3-0.3,0.6-0.6,0.9-0.9"/>
	<path class="st1" d="M362.4,59.9c-0.6-0.8-0.9-1.3-1.1-1.7c-0.2-0.3-0.2-0.5-0.1-0.6c0.1-0.1,0.3,0,0.6,0.2
		c0.3,0.2,0.8,0.5,1.6,1.2l0.2,0.2c-0.1,0.2-0.2,0.4-0.4,0.5c-0.2,0.1-0.3,0.3-0.6,0.3L362.4,59.9z"/>
</g>
<g>
	<path class="st1" d="M363.4,59.2c-0.3,0.3-0.6,0.6-0.9,0.8"/>
	<path class="st1" d="M363.5,59.3c0.7,0.8,1,1.3,1.2,1.7c0.2,0.3,0.2,0.5,0.2,0.6c-0.1,0.1-0.3,0-0.6-0.2c-0.3-0.2-0.8-0.5-1.6-1.3
		l-0.2-0.2c0.1-0.2,0.2-0.3,0.3-0.5c0.2-0.1,0.3-0.3,0.5-0.3L363.5,59.3z"/>
</g>
<g>
	<line class="st1" x1="409" y1="46.2" x2="424.4" y2="61"/>
	<path class="st1" d="M409.1,46.1c2,0.5,3.7,1.3,5.2,2.3c1.5,1,2.9,2.1,4.2,3.3c1.3,1.2,2.4,2.6,3.5,4.1c1,1.5,1.9,3.1,2.5,5.1
		l-0.2,0.2c-2.7-2.4-5.2-4.9-7.8-7.3c-2.5-2.5-5.1-4.9-7.6-7.5L409.1,46.1z"/>
</g>
<g>
	<line class="st1" x1="424.4" y1="61" x2="427.9" y2="63.6"/>
	<path class="st1" d="M424.5,60.9c0.9-0.6,1.6-0.9,2.1-0.9c0.5-0.1,0.9,0,1.2,0.2c0.3,0.2,0.5,0.6,0.6,1.1c0.1,0.5,0,1.2-0.3,2.3
		l-0.2,0.2c-0.7-0.3-1.2-0.8-1.9-1.2c-0.6-0.5-1.2-0.9-1.7-1.4L424.5,60.9z"/>
</g>
<g>
	<line class="st1" x1="427.9" y1="63.6" x2="397.5" y2="68.2"/>
	<path class="st1" d="M427.9,63.8c-2.4,1.4-4.8,2.4-7.3,3.1c-2.5,0.8-5,1.3-7.5,1.7c-2.5,0.4-5.1,0.6-7.7,0.6
		c-2.6,0-5.2-0.1-7.9-0.8l0-0.3c5-0.9,10.1-1.6,15.2-2.5c5.1-0.7,10.1-1.5,15.2-2.2L427.9,63.8z"/>
</g>
<g>
	<line class="st1" x1="416.9" y1="65.3" x2="431.9" y2="82"/>
	<path class="st1" d="M417,65.2c2,0.7,3.7,1.7,5.2,2.9c1.5,1.1,2.9,2.4,4.1,3.8c1.2,1.4,2.4,2.9,3.3,4.6c0.9,1.7,1.8,3.4,2.3,5.5
		l-0.2,0.2c-2.6-2.7-5.1-5.5-7.6-8.3c-2.5-2.8-5-5.6-7.4-8.5L417,65.2z"/>
</g>
<g>
	<path class="st1" d="M368.8,83.4c21-0.3,41.8-1.2,63.1-1.4"/>
	<path class="st1" d="M368.8,83.3c5.2-1.1,10.5-1.8,15.7-2.3c2.6-0.3,5.2-0.4,7.9-0.6c2.6-0.1,5.3-0.2,7.9-0.4
		c2.6,0,5.3-0.1,7.9-0.1c2.6,0.1,5.3,0.1,7.9,0.2c5.3,0.3,10.5,0.7,15.8,1.8l0,0.3c-10.5,0.1-21,0.4-31.5,0.8
		c-10.5,0.2-21,0.5-31.5,0.6L368.8,83.3z"/>
</g>
<path class="st2" d="M390.1,83c-0.2,1.7-0.5,3.4-0.7,5.1"/>
<path class="st2" d="M398.9,82.7c-0.2,1.5-0.4,3-0.6,4.5"/>
<g>
	<line class="st1" x1="360.6" y1="4.7" x2="342.9" y2="41.8"/>
	<path class="st1" d="M360.7,4.8c-0.5,3.5-1.5,6.9-2.6,10.1c-0.5,1.6-1.2,3.2-1.8,4.8c-0.7,1.6-1.4,3.1-2.1,4.7
		c-0.8,1.5-1.5,3.1-2.3,4.6c-0.9,1.5-1.6,3-2.6,4.5c-1.8,2.9-3.8,5.8-6.2,8.4l-0.3-0.1c2.8-6.2,5.8-12.4,8.7-18.6
		c3-6.2,5.9-12.4,9-18.5L360.7,4.8z"/>
</g>
<g>
	<path class="st1" d="M384.2,39.9c-2.2-1.9-2.6-4.4-4.1-6.6c-7.1-9.9-13.7-19.5-19.4-29.2"/>
	<path class="st1" d="M384.1,40c-0.9-0.4-1.7-1-2.3-1.7c-0.7-0.7-1.2-1.5-1.7-2.2c-0.5-0.7-1-1.3-1.6-1.9c-0.6-0.6-1.2-1.3-1.8-2
		c-1.2-1.3-2.3-2.8-3.5-4.1c-1.1-1.4-2.1-2.9-3.2-4.4c-1-1.5-2-3-2.9-4.5c-0.9-1.6-1.8-3.1-2.6-4.7c-1.6-3.2-3.1-6.6-4-10.2l0.3-0.2
		c3.7,6.1,7.6,12.1,11.7,18c2,3,4.1,5.9,6.1,8.8l1.5,2.2c0.5,0.7,1,1.5,1.4,2.3c0.7,1.6,1.5,3.3,2.8,4.5L384.1,40z"/>
</g>
<g>
	<path class="st1" d="M388.1,45.8c-0.6-1-1.3-1.9-1.9-2.9"/>
	<path class="st1" d="M388,45.9c-1,0.3-1.7,0.4-2.1,0.4c-0.5,0-0.8-0.2-0.9-0.4c-0.2-0.2-0.2-0.6,0-1c0.2-0.5,0.5-1,1.2-1.8l0.3-0.2
		c0.4,0.4,0.7,0.9,1.1,1.4c0.3,0.5,0.6,1,0.8,1.5L388,45.9z"/>
</g>
<g>
	<line class="st1" x1="342.9" y1="41.8" x2="364.9" y2="41.8"/>
	<path class="st1" d="M342.9,41.7c1.8-1.1,3.7-1.6,5.5-2c1.8-0.4,3.7-0.5,5.5-0.5c1.8,0,3.7,0.2,5.5,0.6c1.8,0.4,3.7,0.9,5.5,2V42
		c-3.7,0.1-7.3,0.1-11,0.1c-3.7-0.1-7.3,0-11-0.1V41.7z"/>
</g>
<g>
	<path class="st1" d="M375.5,46.2c4.5-0.2,8.4-0.2,12.5-0.4"/>
	<path class="st1" d="M375.5,46.1c1-1.1,2-1.7,3-2.1c1-0.4,2.1-0.6,3.1-0.6c1,0,2.1,0.1,3.2,0.5c1.1,0.4,2.1,0.9,3.2,1.9l0,0.3
		c-2.1,0.2-4.2,0.2-6.3,0.3c-2.1,0-4.2,0.1-6.3,0L375.5,46.1z"/>
</g>
<g>
	<path class="st1" d="M358.6,46.8c5.3-0.5,10.4-0.2,15.7-0.5"/>
	<path class="st1" d="M358.6,46.6c1.2-1.2,2.5-1.8,3.9-2.2c1.3-0.4,2.7-0.6,4-0.6c1.3,0,2.6,0.2,3.9,0.5c1.3,0.4,2.6,0.9,4,1.8
		l0,0.3c-2.6,0.3-5.2,0.3-7.9,0.4c-2.6,0-5.2,0-7.8,0.1L358.6,46.6z"/>
</g>
<g>
	<line class="st1" x1="353.9" y1="41.8" x2="335.4" y2="60.1"/>
	<path class="st1" d="M354,41.9c-0.8,2.3-1.9,4.2-3.2,6c-1.3,1.8-2.7,3.4-4.2,5c-1.5,1.5-3.2,2.9-5,4.2c-1.8,1.3-3.7,2.4-6,3.2
		l-0.2-0.2c3-3.1,6.1-6.2,9.1-9.2c3.1-3,6.2-6.1,9.3-9L354,41.9z"/>
</g>
<g>
	<path class="st1" d="M388.8,57.1c-0.6-0.6-1.1-1.1-1.7-1.7L388.8,57.1C388.7,57.1,388.7,57.1,388.8,57.1z"/>
	<path class="st1" d="M388.6,57.1c-0.7-0.4-1.5-0.6-2.1-0.5c-0.6,0.1-1.1,0.5-1.4,0.8l3.8-3.8l-0.1,3.5l-0.1,0
		C388.7,57,388.6,57,388.6,57.1z M388.9,57.2c0,0-0.1,0.1-0.1,0.1l-0.1,0l0,0l-1.8-1.6l0.4-0.4C387.9,55.9,388.4,56.6,388.9,57.2z"
		/>
</g>
<g>
	<path class="st1" d="M379.1,47.5c2.6,2.7,5.3,5.3,7.9,8L379.1,47.5C379.1,47.4,379.1,47.5,379.1,47.5z"/>
	<path class="st1" d="M379.3,47.4c1.1,0.4,2.1,0.9,3,1.3c0.9,0.5,1.8,0.9,2.5,1.5c0.8,0.5,1.5,1,2.2,1.6c0.7,0.6,1.3,1.1,2,1.8
		l-3.8,3.8c-0.7-0.7-1.3-1.4-1.9-2.1c-0.6-0.7-1.2-1.5-1.7-2.3c-0.5-0.8-1-1.7-1.5-2.5c-0.4-0.9-0.8-1.8-1.1-2.9L379.3,47.4
		L379.3,47.4z M379,47.6l0-0.1l-0.2-0.6l0.5,0.4c2.7,2.6,5.4,5.3,8.1,7.9l-0.4,0.4C384.2,53,381.5,50.3,379,47.6z"/>
</g>
<g>
	<path class="st1" d="M335.4,60.1c12,0.2,24.2,0.2,36,0"/>
	<path class="st1" d="M335.5,59.9c3-1.1,6-1.6,9-2c1.5-0.2,3-0.3,4.5-0.4c1.5-0.1,3-0.1,4.5-0.1c1.5,0,3,0.1,4.5,0.1
		c1.5,0.1,3,0.2,4.5,0.4c3,0.4,6,0.9,9,2l0,0.3c-6,0.1-12,0.1-18,0.1c-6-0.1-12,0-18-0.1L335.5,59.9z"/>
</g>
<g>
	<path class="st1" d="M390.6,63c-0.1,0-0.3,0-0.4,0.1c-4.4,0.6-8.9,1.6-13.3,2.4l17.8-2.8C393.4,62.6,392,62.8,390.6,63z"/>
	<path class="st1" d="M390.6,63.1l-0.4,0.1l0,0c-1.1,0.2-2.2,0.4-3.3,0.7c-1.1,0.3-2.1,0.8-3.2,1.2l-3.2,1.4
		c-1.1,0.5-2.1,0.9-3.2,1.3l-0.8-4.7c1.5-0.4,2.9-0.8,4.4-1c0.7-0.1,1.5-0.2,2.2-0.2l2.3-0.1l2.3,0.1l2.3,0.2
		c1.5,0.1,3.1,0.2,4.6,0.2l0.1,0.9c-0.7,0-1.4-0.1-2.1,0C392,63,391.3,63,390.6,63.1z M390.6,62.8l4.2-0.4l0,0.4l-8.9,1.5
		c-3,0.5-5.9,1-8.9,1.4l-0.1-0.5c4.4-0.8,8.8-1.7,13.3-2.3l0,0L390.6,62.8z"/>
</g>
<g>
	<path class="st1" d="M376.9,65.4l-4.9,0.8C373.7,66,375.3,65.7,376.9,65.4z"/>
	<path class="st1" d="M376.8,65.4c-0.6,0.1-1.2,0.3-1.8,0.5c-0.5,0.3-1,0.6-1.4,1c-0.3,0.4-0.6,0.8-0.7,1.1
		c-0.2,0.3-0.3,0.6-0.5,0.8l-0.8-5.3c0.2,0.2,0.4,0.4,0.7,0.6c0.2,0.2,0.6,0.5,1,0.8c0.4,0.3,1,0.5,1.6,0.5
		C375.5,65.5,376.2,65.5,376.8,65.4z M377.1,65.4c-0.8,0.1-1.6,0.3-2.4,0.6c-0.8,0.2-1.7,0.4-2.6,0.6l-0.1-0.6
		c0.9-0.1,1.8-0.2,2.6-0.3C375.5,65.5,376.3,65.5,377.1,65.4z"/>
</g>
<g>
	<line class="st1" x1="348.4" y1="60.1" x2="331.5" y2="81.4"/>
	<path class="st1" d="M348.5,60.2c-0.6,2.4-1.5,4.6-2.7,6.6c-1.1,2-2.4,3.9-3.8,5.7c-1.4,1.8-3,3.4-4.7,5c-1.7,1.5-3.5,3-5.8,4.1
		l-0.2-0.2c2.7-3.6,5.6-7.2,8.3-10.8c2.9-3.5,5.6-7.1,8.6-10.6L348.5,60.2z"/>
</g>
<g>
	<line class="st1" x1="384.9" y1="64.1" x2="398.3" y2="79.9"/>
	<path class="st1" d="M385.1,64c1.9,0.6,3.4,1.6,4.9,2.6c1.4,1.1,2.6,2.3,3.8,3.6c1.1,1.3,2.1,2.7,2.9,4.3c0.8,1.6,1.5,3.2,1.8,5.2
		l-0.2,0.2c-2.3-2.5-4.5-5.2-6.8-7.8c-2.2-2.7-4.4-5.3-6.6-8L385.1,64z"/>
</g>
<g>
	<line class="st1" x1="331.5" y1="81.4" x2="398.3" y2="79.9"/>
	<path class="st1" d="M331.5,81.3c5.5-1.2,11.1-1.9,16.6-2.4c2.8-0.3,5.6-0.4,8.3-0.6c2.8-0.1,5.6-0.2,8.3-0.3
		c2.8,0,5.6-0.1,8.4-0.1c2.8,0.1,5.6,0.1,8.4,0.2c5.6,0.2,11.2,0.7,16.7,1.6l0,0.3l-33.4,0.9l-33.4,0.6L331.5,81.3z"/>
</g>
<path class="st2" d="M361,80.8c-0.4,2.9-0.8,5.7-1.2,8.6"/>
<path class="st2" d="M368.3,84.8c-0.2,1.4-0.4,2.9-0.6,4.3"/>
<path class="st2" d="M368.8,80.5c-0.1,0.7-0.2,1.4-0.3,2.1"/>
<line class="st3" x1="384.2" y1="40" x2="386.1" y2="44.3"/>
<line class="st3" x1="388.9" y1="56.4" x2="394.8" y2="62.5"/>
<line class="st3" x1="379.1" y1="47.4" x2="377.1" y2="46.2"/>
<line class="st3" x1="372.8" y1="46.5" x2="377.1" y2="46.2"/>
<g>
	<g>
		<path class="st1" d="M379.3,35.3c0.5,2.4,2.5,4.1,4.1,5.8c1.3,1.4,3.4-0.7,2.1-2.1c-1.2-1.3-3-2.7-3.3-4.5
			C381.9,32.6,379,33.4,379.3,35.3L379.3,35.3z"/>
	</g>
</g>
<g>
	<g>
		<path class="st1" d="M373.5,45.2c-1.5-0.2-3-0.5-4.5-0.7c-0.8-0.1-1.6,0.2-1.8,1c-0.2,0.7,0.2,1.7,1,1.8c1.5,0.2,3,0.5,4.5,0.7
			c0.8,0.1,1.6-0.2,1.8-1C374.8,46.3,374.4,45.3,373.5,45.2L373.5,45.2z"/>
	</g>
</g>
<g>
	<g>
		<path class="st1" d="M377.1,47.1c-0.1,1.7,1.3,3.1,2.9,3.6c0.8,0.2,1.7-0.3,1.8-1c0.2-0.8-0.2-1.6-1-1.8c-0.1,0-0.2-0.1-0.3-0.1
			c0.1,0.1,0,0,0,0c-0.1-0.1-0.2-0.1-0.2-0.2c0.2,0.1,0,0-0.1-0.1c-0.2-0.2,0.1,0.2,0,0c0,0-0.2-0.2-0.1-0.1c0.1,0.2-0.1-0.2,0,0
			c0,0.2,0-0.1,0-0.2c0-0.8-0.7-1.5-1.5-1.5C377.8,45.6,377.2,46.2,377.1,47.1L377.1,47.1z"/>
	</g>
</g>
<g>
	<g>
		<path class="st1" d="M390.6,56.1c-0.5-1-1.4-1.8-2.3-2.2c-0.7-0.4-1.6-0.2-2.1,0.5c-0.4,0.7-0.2,1.7,0.5,2.1
			c0.2,0.1,0.4,0.2,0.5,0.3c0.1,0.1,0.2,0.1,0.1,0c0.1,0,0.1,0.1,0.2,0.1c0,0,0.4,0.4,0.2,0.2c0.1,0.1,0.2,0.3,0.3,0.5
			c0.4,0.7,1.4,0.9,2.1,0.5C390.8,57.7,390.9,56.8,390.6,56.1L390.6,56.1z"/>
	</g>
</g>
<g>
	<g>
		<path class="st1" d="M373.9,67.3c1.5-0.1,3.1-0.3,4.5-0.8c1.8-0.6,1-3.5-0.8-2.9c-1.2,0.4-2.5,0.7-3.7,0.7
			C372,64.4,372,67.4,373.9,67.3L373.9,67.3z"/>
	</g>
</g>
<line class="st2" x1="368.4" y1="84.8" x2="368.4" y2="82.7"/>
<g>
	<g>
		<g>
			<path class="st1" d="M438.5,109.8c6.4,1,10.9-2.8,15.2-7c2.9-2.9,5.8-5.5,9.9-6.6c5-1.4,8.7,0.2,13.3,1.5
				c3.9,1.1,10.5-1.2,12.2-5.2c0.8-2,0.4-3.9-1.2-5.4c-0.5-0.4-1.1-0.6-1.6-0.9c-2.3-1.6-3.8-2.5-5.7-4.8c-1.5-1.9-3.1-3.5-5.6-4.1
				c-5.3-1.3-8.6,1.4-13.4-3.1c-2-1.9-3.4-4.1-6.2-4.8c-3.5-0.9-6.7,1.1-10.3,0.5c-4.6-0.8-10.4-2.2-11.6,4.1
				c-1,5.1,2.8,9.4,7.8,9.4c-0.4-0.9-0.7-1.7-1.1-2.6c-4.6,5.1,0.6,10.1,6,11c1.9,0.3,3.9,0.2,5.9,0c2.5-0.3,3.8,0.4,5.9,1.7
				c3.3,2,6.4,3.5,10.2,2.3c1.8-0.6,1-3.5-0.8-2.9c-5.5,1.8-7.2-3.4-11.6-4.4c-1.7-0.4-4,0.5-5.5,0.6c-1.6,0.1-12.6-0.9-8-6
				c0.8-0.9,0.3-2.6-1.1-2.6c-2.3,0-5.5-2.6-5-5.2c1-4.8,4.6-3.2,7.2-2.6c1.5,0.4,3,0.8,4.6,0.7c3.9-0.3,5.9-1.9,9.6,1
				c1.5,1.2,2.4,3,4.1,4.1c3.2,2.2,6.2,1.7,9.8,1.8c3.6,0.1,5.5,1.7,7.7,4.4c1.2,1.4,2.5,2.2,3.8,3.5c0.2,0.2,1.3,0.3,1.4,0.6
				c-0.2,1.7-0.4,3.3-0.6,5c-0.9,0.4-1.8,0.7-2.7,1.1c-3,0.5-5.1-0.8-7.9-1.4c-3.4-0.8-7-0.7-10.4,0.1c-3.6,0.9-6.5,2.9-9.2,5.4
				c-4,3.7-8.1,9.2-14.3,8.2C437.4,106.6,436.6,109.5,438.5,109.8L438.5,109.8z"/>
		</g>
	</g>
	<g>
		<g>
			<path class="st1" d="M445.9,91c3.6,3.9-2.4,8.4-5.4,10.3c-1.7,1.1-4.5,1.8-5.5,3.8c-1.9,3.8,3.2,5.1,5.8,4.5
				c1.9-0.4,1.1-3.3-0.8-2.9c-1.4-0.8-1.4-1.3-0.2-1.6c0.6-0.3,1.1-0.6,1.6-0.9c0.9-0.5,1.8-1.1,2.7-1.8c1.6-1.3,3.3-2.7,4.5-4.4
				c2.2-3.1,2-6.3-0.6-9.1C446.7,87.5,444.6,89.6,445.9,91L445.9,91z"/>
		</g>
	</g>
	<g>
		<g>
			<path class="st1" d="M450.3,90.7c0.3,0.9,0.6,1.9,0.5,2.8c-0.1,0.6-0.6,1.3-0.9,1.9c-0.7,1.2-1.4,2.4-2.3,3.4
				c-0.6,0.7,0.4,1.8,1.1,1.1c1.2-1.4,2.2-3,3-4.7c0.9-1.7,0.7-3.1,0.1-4.9C451.4,89.4,450,89.8,450.3,90.7L450.3,90.7z"/>
		</g>
	</g>
	<g>
		<g>
			<path class="st1" d="M453.3,90.1c-0.2,2-0.5,4-1.8,5.6c-0.6,0.8,0.7,1.5,1.3,0.8c1.4-1.9,1.7-4.1,2-6.4
				C454.9,89.1,453.4,89.1,453.3,90.1L453.3,90.1z"/>
		</g>
	</g>
	<g>
		<g>
			<path class="st1" d="M456.5,90.7c-1.8,1.7-2.3,4.2-3.9,6.1c-0.6,0.7,0.4,1.8,1.1,1.1c1.6-1.9,2.1-4.4,3.9-6.1
				C458.2,91.1,457.2,90,456.5,90.7L456.5,90.7z"/>
		</g>
	</g>
	<g>
		<g>
			<path class="st1" d="M458.3,92.2c-1.1,1.5-2.5,2.8-4,3.9c-0.8,0.6,0,1.9,0.8,1.3c1.7-1.2,3.2-2.7,4.5-4.4
				C460.2,92.1,458.9,91.4,458.3,92.2L458.3,92.2z"/>
		</g>
	</g>
	<g>
		<g>
			<path class="st1" d="M460,92.9c-1.2,1-2.4,2-3.7,3c-0.7,0.6,0.3,1.7,1.1,1.1c1.2-1,2.4-2,3.7-3C461.8,93.4,460.7,92.3,460,92.9
				L460,92.9z"/>
		</g>
	</g>
	<g>
		<g>
			<path class="st1" d="M443.3,79.3c4.5-0.7,6.7,0.6,10,3.3c1.6,1.3,3.3,2.3,5.2,3c4.9,1.9,10.3,2,15.5,1.4c0.9-0.1,1-1.6,0-1.5
				c-7.8,0.9-14.9-0.1-21-5.2c-3.2-2.7-5.9-3.1-10.1-2.4C441.9,78,442.3,79.5,443.3,79.3L443.3,79.3z"/>
		</g>
	</g>
	<g>
		<g>
			<path class="st1" d="M446.8,76.5c1.5,0.5,2.9,1.5,3.4,3c0.3,0.9,1.8,0.5,1.4-0.4c-0.7-2-2.5-3.4-4.5-4
				C446.2,74.8,445.8,76.2,446.8,76.5L446.8,76.5z"/>
		</g>
	</g>
	<g>
		<g>
			<path class="st1" d="M471,87.4c1.5,0.4,2.8,1.1,3.8,2.3c0.7,0.7,1.7-0.4,1.1-1.1c-1.2-1.3-2.8-2.2-4.5-2.6
				C470.5,85.6,470.1,87.1,471,87.4L471,87.4z"/>
		</g>
	</g>
</g>
<g>
	<g>
		<g>
			<path class="st1" d="M316.1,113.6c-9.3,1.8-15.2-10.3-23.7-12.4c-3.7-0.9-7.6-0.9-11.3,0.1c-2.6,0.7-5.1,2.2-7.9,1.8
				c-1.6-0.3-4.9-4.3-4.4-5.6c0.2-0.5,2.3-1.1,2.8-1.5c4.1-2.8,4.8-7.8,10.6-7.9c3.8,0,6.9,0.1,10-2.3c1.8-1.4,2.9-3.7,4.8-5
				c2.5-1.7,5.3-0.9,8.2-0.7c1.9,0.1,3.4-0.3,5.2-0.8c2.4-0.6,3.2-1.2,5.4,0.3c1.6,0.3,2.2,1.2,1.8,2.7c0.3,2.6-1.2,4.2-4.6,4.8
				c-1.3,0-2,1.6-1.1,2.6c1.2,3.3,0.2,5.2-3,5.9c-1.6,0.5-3.1,0.6-4.8,0.6c-1.7,0-3.9-0.9-5.6-0.3c-4.3,1.3-6.1,6.5-11.6,5
				c-1.9-0.5-2.7,2.4-0.8,2.9c3.5,0.9,6.6-0.1,9.6-2.1c0.6-0.4,1.1-0.8,1.6-1.2c1.8-1.3,2-1.3,4-1.4c2.3-0.1,4.5,0.4,6.9-0.1
				c5.3-1.1,10.6-6.3,5.8-11.2c-0.4,0.9-0.7,1.7-1.1,2.6c4.8-0.2,8.4-3.9,7.7-8.9c-0.8-6.2-6.5-5.9-11.1-4.7
				c-3.6,0.9-6.4-0.4-9.8-0.1c-3.6,0.3-5.4,2.9-7.7,5.3c-5.4,5.6-13.2,1-18.3,7.1c-1.5,1.8-2.2,3.7-4.4,5.1
				c-1.1,0.7-2.4,0.9-3.4,1.8c-1.2,1.2-1.8,2.7-1.4,4.4c1,4.9,8.8,6.9,12.8,5.8c3.8-1,6.8-2.7,10.8-2.4c5.3,0.3,9,3.1,12.9,6.5
				c4.5,4,9.3,7.7,15.7,6.5C318.8,116.1,318,113.2,316.1,113.6L316.1,113.6z"/>
		</g>
	</g>
	<g>
		<g>
			<path class="st1" d="M306.6,96c-2.6,3-2.6,6.2-0.2,9.3c1.3,1.6,3,3,4.7,4.2c1,0.7,2.1,1.3,3.2,1.9c0.7,0.3,1.3,0.6,2,0.9
				c1.4,0.5,1.1,0.9-0.9,1.3c-1.9-0.4-2.7,2.5-0.8,2.9c2.6,0.5,7.8-0.9,5.8-4.7c-2.1-3.9-17.5-6.9-11.7-13.7
				C309.9,96.6,307.8,94.5,306.6,96L306.6,96z"/>
		</g>
	</g>
	<g>
		<g>
			<path class="st1" d="M302.8,97.5c-0.5,1.8-0.7,3.2,0.2,4.9c0.9,1.6,1.9,3.2,3.2,4.6c0.7,0.7,1.7-0.4,1.1-1.1
				c-1-1-1.7-2.1-2.4-3.3c-1-1.6-1.2-2.8-0.6-4.7C304.5,97,303.1,96.6,302.8,97.5L302.8,97.5z"/>
		</g>
	</g>
	<g>
		<g>
			<path class="st1" d="M299.6,97.6c0.3,2.3,0.8,4.5,2.3,6.3c0.6,0.7,1.7-0.3,1.1-1.1c-1.3-1.6-1.6-3.6-1.9-5.6
				C301,96.2,299.5,96.6,299.6,97.6L299.6,97.6z"/>
		</g>
	</g>
	<g>
		<g>
			<path class="st1" d="M296.9,99.2c1.9,1.6,2.5,4.1,4.2,6c0.7,0.7,1.7-0.3,1.1-1.1c-1.7-1.8-2.3-4.3-4.2-6
				C297.3,97.5,296.2,98.5,296.9,99.2L296.9,99.2z"/>
		</g>
	</g>
	<g>
		<g>
			<path class="st1" d="M295,100.6c1.3,1.6,2.9,3,4.6,4.1c0.8,0.5,1.6-0.8,0.8-1.3c-1.6-1.1-3.1-2.3-4.3-3.9
				C295.4,98.8,294.4,99.9,295,100.6L295,100.6z"/>
		</g>
	</g>
	<g>
		<g>
			<path class="st1" d="M293.6,101.7c1.3,1,2.6,1.9,3.8,2.9c0.8,0.6,1.5-0.7,0.8-1.3c-1.3-1-2.6-1.9-3.8-2.9
				C293.6,99.8,292.9,101.1,293.6,101.7L293.6,101.7z"/>
		</g>
	</g>
	<g>
		<g>
			<path class="st1" d="M311.1,84.7c-4.6-0.5-7,0.3-10.4,3.3c-5.9,5.1-13,6.2-20.7,5.7c-1-0.1-1,1.4,0,1.5
				c5.3,0.4,10.8,0.1,15.7-2.1c1.9-0.8,3.6-1.9,5.1-3.2c3.3-2.8,5.7-4.3,10.2-3.7C312.1,86.3,312.1,84.8,311.1,84.7L311.1,84.7z"/>
		</g>
	</g>
	<g>
		<g>
			<path class="st1" d="M306.9,82.1c-2,0.7-3.7,2.1-4.4,4.2c-0.3,0.9,1.2,1.3,1.4,0.4c0.5-1.5,1.9-2.6,3.3-3.2
				C308.1,83.2,307.8,81.7,306.9,82.1L306.9,82.1z"/>
		</g>
	</g>
	<g>
		<g>
			<path class="st1" d="M282.7,94c-1.7,0.6-3.2,1.5-4.4,2.8c-0.6,0.7,0.4,1.8,1.1,1.1c1-1.2,2.3-2,3.8-2.4
				C284,95.1,283.6,93.7,282.7,94L282.7,94z"/>
		</g>
	</g>
</g>
<g>
	<ellipse class="st2" cx="457.5" cy="64.5" rx="3.2" ry="2.1"/>
	<line class="st2" x1="457.3" y1="64.9" x2="455.7" y2="65"/>
	<line class="st2" x1="456.3" y1="64.3" x2="457.1" y2="65.6"/>
	<ellipse class="st2" cx="454.2" cy="60.9" rx="3.2" ry="2.1"/>
	<line class="st2" x1="453.1" y1="61.6" x2="451.5" y2="61.7"/>
	<line class="st2" x1="452.1" y1="61" x2="452.9" y2="62.4"/>
	<ellipse class="st2" cx="465.2" cy="70.9" rx="3.2" ry="2.1"/>
	<line class="st2" x1="464.9" y1="71.5" x2="463.3" y2="71.6"/>
	<line class="st2" x1="463.9" y1="70.9" x2="464.7" y2="72.2"/>
	<ellipse class="st2" cx="460.9" cy="67.9" rx="3.2" ry="2.1"/>
	<line class="st2" x1="460.7" y1="68.3" x2="459.1" y2="68.3"/>
	<line class="st2" x1="459.7" y1="67.6" x2="460.5" y2="69"/>
	<ellipse class="st2" cx="460.8" cy="60" rx="3.2" ry="2.1"/>
	<line class="st2" x1="460.4" y1="60.9" x2="458.9" y2="61"/>
	<line class="st2" x1="459.4" y1="60.3" x2="460.3" y2="61.6"/>
	<ellipse class="st2" cx="468.3" cy="67.1" rx="3.2" ry="2.1"/>
	<line class="st2" x1="468" y1="67.5" x2="466.5" y2="67.6"/>
	<line class="st2" x1="467" y1="66.9" x2="467.9" y2="68.2"/>
	<ellipse class="st2" cx="464.1" cy="63.9" rx="3.2" ry="2.1"/>
	<line class="st2" x1="463.8" y1="64.3" x2="462.3" y2="64.4"/>
	<line class="st2" x1="462.8" y1="63.6" x2="463.7" y2="65"/>
	<ellipse class="st2" cx="471.8" cy="63.4" rx="3.2" ry="2.1"/>
	<line class="st2" x1="471.5" y1="63.8" x2="470" y2="63.9"/>
	<line class="st2" x1="470.5" y1="63.1" x2="471.3" y2="64.5"/>
	<ellipse class="st2" cx="467.3" cy="59.9" rx="3.2" ry="2.1"/>
	<line class="st2" x1="467" y1="60.3" x2="465.5" y2="60.4"/>
	<line class="st2" x1="466" y1="59.6" x2="466.8" y2="61"/>
	<ellipse class="st2" cx="473.8" cy="59.3" rx="3.2" ry="2.1"/>
	<line class="st2" x1="473.6" y1="59.6" x2="472" y2="59.7"/>
	<line class="st2" x1="472.6" y1="59" x2="473.4" y2="60.4"/>
</g>
<g>
	<ellipse class="st2" cx="330.6" cy="75.6" rx="3.3" ry="2.6"/>
	<line class="st2" x1="331.2" y1="75.7" x2="331.9" y2="76.8"/>
	<line class="st2" x1="330.7" y1="76.7" x2="332.4" y2="75.5"/>
	<ellipse class="st2" cx="326.6" cy="79.9" rx="3.3" ry="2.6"/>
	<line class="st2" x1="328.1" y1="80.4" x2="328.9" y2="81.5"/>
	<line class="st2" x1="327.6" y1="81.4" x2="329.3" y2="80.2"/>
	<ellipse class="st2" cx="336.9" cy="66.9" rx="3.3" ry="2.6"/>
	<line class="st2" x1="337.9" y1="66.9" x2="338.7" y2="68"/>
	<line class="st2" x1="337.4" y1="67.9" x2="339.1" y2="66.7"/>
	<ellipse class="st2" cx="334.2" cy="71.5" rx="3.3" ry="2.6"/>
	<line class="st2" x1="334.9" y1="71.6" x2="335.6" y2="72.7"/>
	<line class="st2" x1="334.3" y1="72.6" x2="336" y2="71.4"/>
	<ellipse class="st2" cx="322.8" cy="75.1" rx="3.3" ry="2.6"/>
	<line class="st2" x1="324.2" y1="75.1" x2="324.9" y2="76.2"/>
	<line class="st2" x1="323.7" y1="76.1" x2="325.3" y2="74.8"/>
	<ellipse class="st2" cx="330.3" cy="66.2" rx="3.3" ry="2.6"/>
	<line class="st2" x1="330.9" y1="66.2" x2="331.6" y2="67.4"/>
	<line class="st2" x1="330.4" y1="67.3" x2="332.1" y2="66"/>
	<ellipse class="st2" cx="327.2" cy="70.9" rx="3.3" ry="2.6"/>
	<line class="st2" x1="327.8" y1="70.9" x2="328.6" y2="72"/>
	<line class="st2" x1="327.3" y1="72" x2="329" y2="70.7"/>
	<ellipse class="st2" cx="323.5" cy="65.2" rx="3.3" ry="2.6"/>
	<line class="st2" x1="324.2" y1="65.2" x2="324.9" y2="66.4"/>
	<line class="st2" x1="323.7" y1="66.3" x2="325.3" y2="65"/>
	<ellipse class="st2" cx="320.2" cy="70.2" rx="3.3" ry="2.6"/>
	<line class="st2" x1="320.8" y1="70.3" x2="321.5" y2="71.4"/>
	<line class="st2" x1="320.3" y1="71.3" x2="321.9" y2="70.1"/>
	<ellipse class="st2" cx="316.8" cy="65.4" rx="3.3" ry="2.6"/>
	<line class="st2" x1="317.4" y1="65.5" x2="318.1" y2="66.6"/>
	<line class="st2" x1="316.9" y1="66.5" x2="318.5" y2="65.3"/>
</g>
<g>
	<g>
		<g>
			<path class="st1" d="M282.4,53c-9.5,5.1-20.2,6.6-29.5,12.3c-8.6,5.2-16.1,11.9-23.3,18.9c-0.7,0.7,0.4,1.7,1.1,1.1
				c7.5-7.2,15.3-14.3,24.4-19.5c8.9-5.1,19.1-6.6,28.1-11.4C284,53.8,283.3,52.5,282.4,53L282.4,53z"/>
		</g>
	</g>
	<g>
		<g>
			<path class="st1" d="M235.6,88c-1.1,0.1-2.2,0.1-3.3-0.3c-0.4-0.2-1.2-0.5-1.5-0.9c-0.5-0.7,0-1.4,0.3-2c0.4-0.9-0.8-1.6-1.3-0.8
				c-0.8,1.5-1.2,3,0.3,4.2c1.6,1.2,3.6,1.5,5.5,1.3C236.5,89.4,236.5,87.9,235.6,88L235.6,88z"/>
		</g>
	</g>
	<g>
		<g>
			<path class="st1" d="M244.4,80.3c9.4-13.6,24.2-20.7,39.1-26.8c0.9-0.4,0.5-1.8-0.4-1.4c-15.3,6.2-30.3,13.5-40,27.5
				C242.6,80.3,243.9,81.1,244.4,80.3L244.4,80.3z"/>
		</g>
	</g>
	<g>
		<g>
			<path class="st1" d="M236.6,89.3c2.2-2.6,4.4-5.2,6.7-7.7c0.6-0.7-0.4-1.8-1.1-1.1c-2.3,2.5-4.5,5.1-6.7,7.7
				C234.9,89,236,90.1,236.6,89.3L236.6,89.3z"/>
		</g>
	</g>
	<g>
		<g>
			<path class="st1" d="M282.9,54.3c1,0,1-1.5,0-1.5C282,52.8,282,54.3,282.9,54.3L282.9,54.3z"/>
		</g>
	</g>
	<g>
		<g>
			<path class="st1" d="M283.5,53.7c1,0,1-1.5,0-1.5C282.5,52.2,282.5,53.7,283.5,53.7L283.5,53.7z"/>
		</g>
	</g>
	<g>
		<g>
			<path class="st1" d="M283.2,53.5c1,0,1-1.5,0-1.5C282.3,52,282.3,53.5,283.2,53.5L283.2,53.5z"/>
		</g>
	</g>
	<g>
		<g>
			<path class="st1" d="M246.7,89.3c-2.2,0.5-4,0.4-4.1-2.2c-0.1-1.9,0.5-3.8,0.9-5.6c0.2-0.9-1.2-1.3-1.4-0.4
				c-0.5,2.4-1.4,5.2-0.7,7.6c0.8,2.6,3.6,2.5,5.8,2C248,90.5,247.6,89.1,246.7,89.3L246.7,89.3z"/>
		</g>
	</g>
	<g>
		<g>
			<path class="st1" d="M258.9,84.9c0.7,2.7,2.3,5,3.2,7.6c0.5,1.5,1,3.2,0.4,4.7c-0.7,2-3.5,3.4-5.6,2.6c-4.3-1.5-4.1-8.2-8-10.4
				c-0.8-0.5-1.6,0.8-0.8,1.3c4.5,2.5,4.3,12.6,11.5,10.5c8.8-2.5,2-11.7,0.7-16.8C260.1,83.6,258.6,84,258.9,84.9L258.9,84.9z"/>
		</g>
	</g>
	<g>
		<g>
			<path class="st1" d="M240.5,74.6c-3.6-3.4-1-8.6,3.2-9.9c0.4-0.1,0.7-0.7,0.4-1.1c-1.6-2.3-3.3-5.1-3.2-8
				c0.1-2.5,1.8-5.3,4.2-6.1c2.6-0.8,4.1,0.9,6,2.4c2.7,2,5.9,3.4,8.3,0.4c1.2-1.5,1.6-3.5,1.9-5.3c0.6-3.1,1.2-5.5,3.4-8
				c1.2-1.4,2.9-3.1,4.8-3.4c4-0.8,4.4,1.6,6.2,3.7c1.2,1.5,2,2,3.8,2.5c6,1.6,13.4-0.2,18.2,4.8c6.8,7,0,19.5-9.3,18.9
				c-2.5-0.2-5.9-1.3-7.2,1.7c-0.5,1.2-0.2,2.7,0.2,3.9c0.2,0.7,0.6,1.4,1,2.1c1.4,2.6,2.4,3.4,0.8,6.6c-5,10.2-12.8-2.7-19-3.2
				c-4.2-0.3-5.3,3.8-5.7,7.1c-0.1,1,1.4,0.9,1.5,0c0.4-3.1,1.5-6,5.3-4.9c1.7,0.5,3.4,2.1,4.9,3c2.5,1.6,5.3,3.3,8.4,3.1
				c4.9-0.3,8.8-4.3,6.9-9.1c-0.6-1.6-1.9-3-2.4-4.6c-1.6-4.9,1.9-4.5,5-4.1c2.8,0.4,4.5,0,7-1.6c4.9-3.1,8.4-9,6.6-14.8
				c-2-6.5-8.1-8.6-14.2-9.2c-2.3-0.2-4.8-0.2-7-0.8c-2.7-0.7-3.3-2.1-4.9-4c-1.4-1.7-2.9-2.6-5.2-2.5c-6.5,0.5-9.5,7.9-10.5,13.2
				c-0.1,0.6-0.3,1.7-0.6,2.3c-2.5,4.8-4.6,3.1-7.1,1.3c-1.2-0.9-2.5-2.4-4-2.9c-2.1-0.7-4.3,0.2-5.9,1.6c-2,1.7-3,4.1-2.9,6.7
				c0.1,1.5,0.6,3,1.2,4.4c0.2,0.4,1.7,2.7,1.6,3c0,0-2.7,1.8-3,2.2c-0.9,1-1.5,2.2-1.8,3.4c-0.6,2.5,0.1,4.7,2,6.5
				C240.2,76.3,241.2,75.3,240.5,74.6L240.5,74.6z"/>
		</g>
	</g>
	<g>
		<g>
			<path class="st1" d="M252.2,67c0.8-1.6-0.1-3.7-0.8-5.2c-0.9-2.1-2.3-3.9-4.1-5.3c-0.7-0.6-1.8,0.4-1.1,1.1
				c1.3,1.1,2.3,2.3,3.2,3.7c0.6,1.1,2.1,3.7,1.4,5C250.5,67.1,251.8,67.9,252.2,67L252.2,67z"/>
		</g>
	</g>
	<g>
		<g>
			<path class="st1" d="M254.9,87.6c1.3-5.9,1.1-11.7-0.8-17.4c-0.3-0.9-1.8-0.5-1.4,0.4c1.8,5.5,2,11,0.8,16.6
				C253.3,88.2,254.7,88.6,254.9,87.6L254.9,87.6z"/>
		</g>
	</g>
	<g>
		<g>
			<path class="st1" d="M279.3,75.8c-1.8-3.3-4-6.3-6.6-9c-2.2-2.3-4.4-5.4-7.8-5.9c-0.9-0.1-1.4,1.3-0.4,1.4c3.2,0.4,5.7,4,7.8,6.3
				c2.2,2.4,4.1,5.1,5.6,8C278.4,77.4,279.7,76.6,279.3,75.8L279.3,75.8z"/>
		</g>
	</g>
	<g>
		<g>
			<path class="st1" d="M266.8,60c2-4.9,4-10.1,1.7-15.2c-0.4-0.9-1.7-0.1-1.3,0.8c2.1,4.7-0.1,9.7-1.8,14.1
				C265,60.5,266.5,60.9,266.8,60L266.8,60z"/>
		</g>
	</g>
	<g>
		<g>
			<path class="st1" d="M247.3,90.7c0.3-0.2,0.6-0.2,0.9-0.1c0.9,0.3,1.3-1.1,0.4-1.4c-0.7-0.2-1.4-0.1-2.1,0.2
				C245.7,89.9,246.4,91.2,247.3,90.7L247.3,90.7z"/>
		</g>
	</g>
	<g>
		<g>
			<path class="st1" d="M259.6,84.9c1,0,1-1.5,0-1.5C258.7,83.4,258.7,84.9,259.6,84.9L259.6,84.9z"/>
		</g>
	</g>
	<g>
		<g>
			<path class="st1" d="M259.5,84.5c1,0,1-1.5,0-1.5C258.5,83,258.5,84.5,259.5,84.5L259.5,84.5z"/>
		</g>
	</g>
	<g>
		<g>
			<path class="st1" d="M259.7,85.2c1,0,1-1.5,0-1.5C258.7,83.7,258.7,85.2,259.7,85.2L259.7,85.2z"/>
		</g>
	</g>
	<g>
		<g>
			<path class="st1" d="M242.9,81.4c1,0,1-1.5,0-1.5C241.9,79.9,241.9,81.4,242.9,81.4L242.9,81.4z"/>
		</g>
	</g>
	<g>
		<g>
			<path class="st1" d="M243.3,81c1,0,1-1.5,0-1.5C242.4,79.5,242.4,81,243.3,81L243.3,81z"/>
		</g>
	</g>
	<g>
		<g>
			<path class="st1" d="M243.5,80.9c1,0,1-1.5,0-1.5C242.6,79.4,242.6,80.9,243.5,80.9L243.5,80.9z"/>
		</g>
	</g>
</g>
<g>
	<g>
		<g>
			<path class="st1" d="M479.6,44.3c8.4,7.2,18.6,11.5,26.9,18.9c8.6,7.7,15.8,16.9,22.6,26.2c0.6,0.8,1.9,0,1.3-0.8
				c-6.6-9-13.4-17.8-21.6-25.4c-8.6-8-19.4-12.5-28.2-20C479.9,42.7,478.9,43.7,479.6,44.3L479.6,44.3z"/>
		</g>
	</g>
	<g>
		<g>
			<path class="st1" d="M523.9,92.5c1.8,0.7,3.9,0.9,5.6,0.1c1.7-0.8,1.3-2.6,0.8-4.1c-0.3-0.9-1.8-0.5-1.4,0.4
				c0.2,0.5,0.4,0.9,0.4,1.4c0.1,0.9-0.6,1.1-1.3,1.2c-1.3,0.2-2.5,0-3.7-0.4C523.4,90.8,523,92.2,523.9,92.5L523.9,92.5z"/>
		</g>
	</g>
	<g>
		<g>
			<path class="st1" d="M517.3,80.3C509,63.8,494.8,52.5,480,42.2c-0.8-0.6-1.5,0.7-0.8,1.3C493.9,53.7,507.9,64.8,516,81
				C516.4,81.9,517.7,81.1,517.3,80.3L517.3,80.3z"/>
		</g>
	</g>
	<g>
		<g>
			<path class="st1" d="M524.3,91.3c-1.9-3.2-3.9-6.5-6-9.6c-0.5-0.8-1.8-0.1-1.3,0.8c2.1,3.2,4.1,6.4,6,9.6
				C523.5,92.9,524.7,92.2,524.3,91.3L524.3,91.3z"/>
		</g>
	</g>
	<g>
		<g>
			<path class="st1" d="M480,44.4c1,0,1-1.5,0-1.5C479,42.9,479,44.4,480,44.4L480,44.4z"/>
		</g>
	</g>
	<g>
		<g>
			<path class="st1" d="M479.5,43.7c1,0,1-1.5,0-1.5C478.6,42.2,478.5,43.7,479.5,43.7L479.5,43.7z"/>
		</g>
	</g>
	<g>
		<g>
			<path class="st1" d="M479.8,43.5c1,0,1-1.5,0-1.5C478.8,42,478.8,43.5,479.8,43.5L479.8,43.5z"/>
		</g>
	</g>
	<g>
		<g>
			<path class="st1" d="M512.4,90.8c2,1,4.8,2,6-0.6c1.1-2.3,0.3-5.5,0-7.9c-0.1-0.9-1.6-1-1.5,0c0.2,2,0.6,4,0.4,6
				c-0.1,0.7-0.2,1.6-0.9,1.9c-1,0.5-2.5-0.4-3.3-0.8C512.3,89.1,511.5,90.4,512.4,90.8L512.4,90.8z"/>
		</g>
	</g>
	<g>
		<g>
			<path class="st1" d="M499.8,81.3c-1.2,3.4-4.1,6.1-4.7,9.8c-0.5,3.4,1.6,6.4,4.7,7.7c6.4,2.6,6.9-6.8,11.4-8.2
				c0.9-0.3,0.5-1.7-0.4-1.4c-4.1,1.2-4.4,7.5-8.4,8.5c-1.9,0.5-4.2-1.3-5.2-2.8c-1.2-1.9-0.7-4.1,0.1-6c1.1-2.5,2.9-4.6,3.8-7.1
				C501.6,80.8,500.1,80.4,499.8,81.3L499.8,81.3z"/>
		</g>
	</g>
	<g>
		<g>
			<path class="st1" d="M521.2,77.4c4.2-2.7,2.9-8.4,0-11.6c-1.8-2-1.4-0.5-0.9-2.4c0.3-1.1,1.5-2.2,1.9-3.3
				c1.1-2.8,1.1-5.7-0.3-8.4c-1-1.9-3.2-4.4-5.5-4.8c-4.1-0.7-8.2,6.2-11.9,0.7c-2.2-3.1-0.9-8-2.5-11.6c-1.2-2.8-2.9-5.7-5.3-7.6
				c-1.5-1.2-3.6-2.3-5.6-1.9c-1,0.2-1.5,0.6-2.3,1.2c-0.7,0.5-1.1,1.4-1.8,1.9c-2.1,1.5-4.6,1.1-7,0.7c-5.9-0.9-13-2.7-17.3,2.9
				c-3.8,4.9-2,11.6,1.4,16.2c1.5,2.1,3.9,4.8,6.4,5.8c3.4,1.3,11-0.3,7.5,6.3c-1.3,2.5-3.8,4.2-3.6,7.3c0.2,3,2.9,5.7,5.4,6.9
				c2.9,1.4,5.9,1,8.8,0c1.9-0.6,4.2-2.2,6.3-2.3c4.1-0.2,4.8,3.2,5,6.6c0,1,1.5,1,1.5,0c-0.1-3.1-0.5-6.7-3.8-8.1
				c-4.1-1.7-9.4,3.3-13.7,3.2c-2.9-0.1-7-2.6-7.7-5.6c-0.6-2.1,0.5-3.5,1.6-5c1-1.4,2.3-2.8,2.7-4.6c0.6-2.9-1-4.8-3.8-5.5
				c-2.8-0.7-5.1-0.4-7.6-2.3c-2.9-2.2-5.3-5.6-6.3-9.1c-1.2-4-0.4-8.2,3.1-10.7c3.7-2.6,8.4-1.6,12.5-0.9c2.1,0.3,5,1.2,7.1,0.7
				c1.9-0.4,2.3-1.7,3.8-2.8c4.3-3.1,7.7,0.4,9.9,4.1c2,3.4,2.3,6.2,2.7,10c0.4,3.7,2,7.9,6.4,7.5c3.3-0.3,5.5-3.6,8.9-2.4
				c7,2.6,4.1,11.3,0.5,15.1c-0.3,0.4-0.3,0.9,0.2,1.2c3.2,2,7.1,8,2.5,11C519.6,76.7,520.4,78,521.2,77.4L521.2,77.4z"/>
		</g>
	</g>
	<g>
		<g>
			<path class="st1" d="M510.8,64.9c-0.5-1.5,0.9-3.6,1.7-4.7c0.9-1.3,2.1-2.3,3.5-3.1c0.8-0.5,0.1-1.8-0.8-1.3
				c-1.7,1-3.2,2.3-4.3,4c-1,1.5-2.2,3.7-1.6,5.4C509.7,66.2,511.1,65.8,510.8,64.9L510.8,64.9z"/>
		</g>
	</g>
	<g>
		<g>
			<path class="st1" d="M506.4,85.6c-0.7-5.7-0.3-11.5,2.1-16.8c0.4-0.9-0.9-1.6-1.3-0.8c-2.5,5.6-3,11.5-2.3,17.5
				C505.1,86.6,506.6,86.6,506.4,85.6L506.4,85.6z"/>
		</g>
	</g>
	<g>
		<g>
			<path class="st1" d="M483,68.3c1.8-2.5,3.8-4.7,6.2-6.6c2.2-1.8,5.1-4.7,8.1-4.3c1,0.1,0.9-1.4,0-1.5c-3.1-0.4-5.5,1.9-7.8,3.7
				c-3,2.3-5.6,4.9-7.8,8C481.2,68.3,482.5,69,483,68.3L483,68.3z"/>
		</g>
	</g>
	<g>
		<g>
			<path class="st1" d="M496.9,54.2c-1.3-4.6-3.2-10.3-0.6-14.8c0.5-0.8-0.8-1.6-1.3-0.8c-2.9,4.9-1,10.9,0.5,16
				C495.7,55.5,497.2,55.1,496.9,54.2L496.9,54.2z"/>
		</g>
	</g>
	<g>
		<g>
			<path class="st1" d="M513.2,89.7c-0.6-0.5-1.3-0.8-2-0.8c-0.4,0-0.8,0.3-0.8,0.8c0,0.4,0.3,0.8,0.8,0.8c0.4,0,0.7,0.1,1,0.3
				C512.9,91.4,514,90.3,513.2,89.7L513.2,89.7z"/>
		</g>
	</g>
	<g>
		<g>
			<path class="st1" d="M500.6,81.7c1,0,1-1.5,0-1.5C499.6,80.2,499.6,81.7,500.6,81.7L500.6,81.7z"/>
		</g>
	</g>
	<g>
		<g>
			<path class="st1" d="M500.8,81.3c1,0,1-1.5,0-1.5C499.8,79.8,499.8,81.3,500.8,81.3L500.8,81.3z"/>
		</g>
	</g>
	<g>
		<g>
			<path class="st1" d="M500.5,82c1,0,1-1.5,0-1.5C499.5,80.5,499.5,82,500.5,82L500.5,82z"/>
		</g>
	</g>
	<g>
		<g>
			<path class="st1" d="M517.5,82.4c1,0,1-1.5,0-1.5C516.6,80.9,516.5,82.4,517.5,82.4L517.5,82.4z"/>
		</g>
	</g>
	<g>
		<g>
			<path class="st1" d="M517.1,81.8c1,0,1-1.5,0-1.5C516.1,80.3,516.1,81.8,517.1,81.8L517.1,81.8z"/>
		</g>
	</g>
	<g>
		<g>
			<path class="st1" d="M516.9,81.7c1,0,1-1.5,0-1.5C515.9,80.2,515.9,81.7,516.9,81.7L516.9,81.7z"/>
		</g>
	</g>
</g>
<g>
	<g>
		<g>
			<path class="st1" d="M230.4,115.2c-2.1-6.9-1.4-14.7-5.2-21.1c-0.5-0.8-1.8-0.1-1.3,0.8c3.7,6.2,3,13.9,5,20.7
				C229.2,116.5,230.6,116.1,230.4,115.2L230.4,115.2z"/>
		</g>
	</g>
	<g>
		<g>
			<path class="st1" d="M212.2,99.3c1.1-2.9,2.3-6.1,4.5-8.4c0.6-0.5,1.2-1,1.8-1.5c1.5-1.5,3-1.4,4.4,0.3c2.2,0.2,2.9,1.1,2,2.5
				c-0.3,0.7-0.6,1.4-0.9,2.1c-2.1,3.9-7.2,4.2-10.3,7.1c-0.6,0.5-1.1,1.1-1.6,1.6c-1.9,1.7-4.2,1.3-5.2-1c-0.9-1.9-0.5-5.1,0-7.1
				c0.5-2.4,1.5-4.6,3-6.5c0.5-0.7,1.3-2.1,2.2-2.5c2.1,0.1,4.3,0.2,6.4,0.4c0.2,0.6,0.3,1.3,0.4,1.9c0.1,0.5,0.8,0.3,0.7-0.2
				c-1.6-9.5-10.2-1.6-12.4,3.4c-1.3,3-3.3,16.8,3.6,13.5c2-1,3.3-3.2,5.2-4.4c2-1.3,4.5-1.6,6.5-3.1c1.9-1.5,4.8-6,3.5-8.5
				c-1.2-2.4-4.8-1.7-6.8-0.8c-4.3,2.1-6.1,6.8-7.7,11C211.3,99.6,212.1,99.8,212.2,99.3L212.2,99.3z"/>
		</g>
	</g>
	<g>
		<g>
			<path class="st1" d="M228,106.6c0.5,0,0.5-0.8,0-0.8C227.6,105.8,227.6,106.6,228,106.6L228,106.6z"/>
		</g>
	</g>
	<g>
		<g>
			<path class="st1" d="M228.1,104.1c-2.5-1.8-6-2.5-8.9-1.1c-2.4,1.2-4.4,4.7-4.1,7.4c0.2,1.8,1.8,2.8,3.2,1.3
				c0.6-0.7,0.8-1.5,1.5-2.2c1.4-1.4,2.7-1.3,4.6-1.2c1.4,0.1,2.4,0.1,3.4-0.8c0.4-0.3-0.2-0.8-0.5-0.5c-1.7,1.4-4.6,0-6.6,0.8
				c-0.5,0.2-0.9,0.5-1.3,0.8c-0.5,0.4-0.9,1.7-1.3,1.9c-0.5,0.3-2-1-2.1-1.7c0-0.5,0.4-1.2,0.6-1.6c0.6-1.5,1.5-2.7,2.9-3.4
				c2.7-1.3,5.8-0.7,8.1,1C228.2,105,228.5,104.3,228.1,104.1L228.1,104.1z"/>
		</g>
	</g>
	<g>
		<g>
			<path class="st1" d="M228,105.3c-2.4-2.1-7.4,0.2-9.8,1.2c-0.4,0.2-0.2,0.9,0.2,0.7c1.3-0.5,2.6-1.1,3.9-1.4c1.3-0.4,4-1,5.2,0
				C227.8,106.2,228.4,105.7,228,105.3L228,105.3z"/>
		</g>
	</g>
	<g>
		<g>
			<path class="st1" d="M224.8,104.3c-0.5-0.6-1.2-1-2-1.1c-0.5-0.1-0.7,0.7-0.2,0.7c0.7,0.1,1.2,0.4,1.7,0.9
				C224.6,105.2,225.1,104.7,224.8,104.3L224.8,104.3z"/>
		</g>
	</g>
	<g>
		<g>
			<path class="st1" d="M223.4,105.4c-0.1,0.1-0.2,0.3-0.3,0.4c-0.3,0.4,0.4,0.8,0.6,0.4c0.1-0.1,0.2-0.3,0.3-0.4
				C224.3,105.4,223.7,105,223.4,105.4L223.4,105.4z"/>
		</g>
	</g>
	<g>
		<g>
			<path class="st1" d="M221.8,105.5c-0.4-0.3-0.8-0.6-1.2-0.9c-0.4-0.3-0.9,0.2-0.5,0.5c0.4,0.3,0.8,0.6,1.2,0.9
				C221.6,106.4,222.2,105.8,221.8,105.5L221.8,105.5z"/>
		</g>
	</g>
	<g>
		<g>
			<path class="st1" d="M219.4,105.8c-0.3,0-0.5,0-0.7-0.2c-0.4-0.2-0.8,0.4-0.4,0.6c0.3,0.2,0.7,0.3,1.1,0.3
				C219.9,106.5,219.9,105.8,219.4,105.8L219.4,105.8z"/>
		</g>
	</g>
	<g>
		<g>
			<path class="st1" d="M218.2,106.7c-0.2,0.6-0.5,1.2-0.7,1.8c-0.2,0.4,0.5,0.6,0.7,0.2c0.2-0.6,0.5-1.2,0.7-1.8
				C219.2,106.5,218.4,106.3,218.2,106.7L218.2,106.7z"/>
		</g>
	</g>
	<g>
		<g>
			<path class="st1" d="M214.4,83.8c-2.2-1.8-4.3-3.6-6.4-5.5c-1.3-1.2-6.5-4.8-6.7-6.6c0.8-1.6,1.6-3.3,2.4-4.9
				c1.8,0.8,3.6,1.5,5.4,2.3c-0.3-0.2,1.3,1.7,1.4,1.8c1.4,1.4,3.2,2.5,5,3.2c6.1,2.5,10-2.5,9.1-8.5c-0.3-2-1.1-4.9-3.4-5.3
				c-1.3-0.2-1.4,0.2-2.5,0.7c-0.3,0.1-0.5,1-0.7,1.1c-1.7,0.9-3.8,0.8-5.4,0.1c-3-1.2-4.6-3-8-1.6c-3.5,1.4-5,4.9-5.5,8.4
				c-0.1,0.9,1.3,1.4,1.4,0.4c0.6-4.3,3.2-9.6,9.3-7.2c1.5,0.6,2.6,2,4.1,2.5c1.3,0.5,2.8,0.7,4-0.2c1.6-1.1,1.7-4.9,4.9,0
				c2.9,4.5-1.8,9.5-7.2,8c-3.9-1.1-4.8-5.5-8.2-6.9c-3-1.3-7.5,0.2-8.1,3.8c-0.4,2.8,2.2,4.9,3.9,6.5c3.3,3.1,6.7,6,10.1,8.9
				C214.1,85.4,215.2,84.4,214.4,83.8L214.4,83.8z"/>
		</g>
	</g>
	<g>
		<g>
			<path class="st1" d="M220.2,63.8c0.4,2.2-0.6,3.1-3.1,2.6c-1.6,1.2-2.8,1.1-3.7-0.1c0.7,0.4-2.1-1.5-1.7-1.3
				c-1.3-0.7-2.9-1.4-4.3-1.7c-2.5-0.5-4.5,0.4-5.5,2.8c-0.2,0.4,0.5,0.8,0.6,0.4c2.1-4.9,8.2-1.4,10.7,0.7c1,0.9,2.1,2.1,3.5,2.3
				c3.3,0.3,4-3.2,4.2-5.7C221,63.3,220.2,63.3,220.2,63.8L220.2,63.8z"/>
		</g>
	</g>
	<g>
		<g>
			<path class="st1" d="M222.5,65.5c-0.9,0.2-1.7,0.4-2.6,0.6c-0.5,0.1-0.3,0.8,0.2,0.7c0.9-0.2,1.7-0.4,2.6-0.6
				C223.2,66.1,223,65.4,222.5,65.5L222.5,65.5z"/>
		</g>
	</g>
	<g>
		<g>
			<path class="st1" d="M219.8,66.8c-0.1-0.5-0.1-1-0.1-1.5c0-0.5-0.7-0.5-0.8,0c-0.1,0.6,0,1.2,0.1,1.7
				C219.2,67.5,219.9,67.3,219.8,66.8L219.8,66.8z"/>
		</g>
	</g>
	<g>
		<g>
			<path class="st1" d="M221.1,70.3c-0.6-0.4-1.2-0.9-1.7-1.3c-0.4-0.3-0.8,0.4-0.4,0.6c0.6,0.4,1.2,0.9,1.7,1.3
				C221.1,71.2,221.5,70.6,221.1,70.3L221.1,70.3z"/>
		</g>
	</g>
	<g>
		<g>
			<path class="st1" d="M218.4,67.8c-0.4-0.5-0.6-1-0.5-1.6c0.1-0.5-0.7-0.7-0.7-0.2c-0.1,0.9,0.1,1.7,0.7,2.4
				C218.2,68.7,218.7,68.1,218.4,67.8L218.4,67.8z"/>
		</g>
	</g>
	<g>
		<g>
			<path class="st1" d="M217,69.7c0.1,1.2,0.5,2.2,1.3,3.1c0.3,0.3,0.9-0.2,0.5-0.5c-0.7-0.7-1-1.6-1.1-2.5
				C217.8,69.2,217,69.2,217,69.7L217,69.7z"/>
		</g>
	</g>
	<g>
		<g>
			<path class="st1" d="M216,68.2c0.1-0.6,0.1-1.3,0.2-1.9c0-0.5-0.7-0.5-0.8,0c-0.1,0.6-0.1,1.3-0.2,1.9
				C215.2,68.7,215.9,68.7,216,68.2L216,68.2z"/>
		</g>
	</g>
	<g>
		<g>
			<path class="st1" d="M213.9,68.1c-0.1,0.8-0.2,1.6-0.2,2.3c0,0.5,0.7,0.5,0.8,0c0.1-0.8,0.2-1.6,0.2-2.3
				C214.7,67.6,213.9,67.6,213.9,68.1L213.9,68.1z"/>
		</g>
	</g>
	<g>
		<g>
			<path class="st1" d="M213.4,65.9c0-0.4,0-0.8,0-1.1c0-0.5-0.7-0.5-0.8,0c0,0.4,0,0.8,0,1.1C212.6,66.4,213.4,66.4,213.4,65.9
				L213.4,65.9z"/>
		</g>
	</g>
	<g>
		<g>
			<path class="st1" d="M211.3,66.5c-0.1,0.6-0.1,1.3-0.2,1.9c-0.1,0.5,0.7,0.5,0.8,0c0.1-0.6,0.1-1.3,0.2-1.9
				C212.1,66,211.4,66,211.3,66.5L211.3,66.5z"/>
		</g>
	</g>
	<g>
		<g>
			<path class="st1" d="M210.7,64.6c-0.1-0.4-0.1-0.7,0-1.1c0.1-0.5-0.6-0.7-0.7-0.2c-0.1,0.5-0.1,1,0,1.5
				C210,65.3,210.8,65.1,210.7,64.6L210.7,64.6z"/>
		</g>
	</g>
	<g>
		<g>
			<path class="st1" d="M192.2,58.4c-2,4.4-8.6,7.6-12.6,3.7c-2.3-2.2-2.5-6.2-0.9-8.9c3-5.1,8.9-1.4,12.3,1
				c0.4,0.3,0.8-0.4,0.4-0.6c-3.3-2.4-8.4-5.7-12.2-2.2c-2.6,2.4-2.9,6.9-1.2,9.8c3.6,6.2,12.4,2.9,14.8-2.5
				C193.1,58.3,192.4,58,192.2,58.4L192.2,58.4z"/>
		</g>
	</g>
	<g>
		<g>
			<path class="st1" d="M200,69c-7.9-5.4,0.9-13.8,1.7-20.4c0.5-4.6-2.6-9.1-7-10.4c-3.6-1.1-6.9-0.6-7.3,3.5
				c-0.3,2.8,1.2,3.7,2.2,6.1c1.3,3.1-0.2,5.3,1.6,8.1c0.5,0.8,1.8,0.1,1.3-0.8c-1.1-1.7-0.3-3.5-0.6-5.4c-0.3-2-1.4-3.1-2.2-4.9
				c-1.1-2.5-1.1-2.4,1.6-4c2.7-1.6,4.2-1.4,6.5,1c3.3,3.3,2.7,7.5,1,11.3c-2.7,6.1-6.3,12.6,0.5,17.2C200,70.9,200.8,69.6,200,69
				L200,69z"/>
		</g>
	</g>
	<g>
		<g>
			<path class="st1" d="M192,59.5c0.7,0.8,1.5,1.4,2.1,2.2c0.7,0.9,1.2,1.9,1.5,3c0.1,0.5,0.9,0.3,0.7-0.2c-0.3-1.1-0.8-2.2-1.5-3.1
				c-0.7-0.9-1.6-1.6-2.3-2.5C192.2,58.6,191.7,59.1,192,59.5L192,59.5z"/>
		</g>
	</g>
	<g>
		<g>
			<path class="st1" d="M195.3,60.2c-0.6-2.4,1.2-5.1,1.8-7.4c0.4-1.6,0.7-3.3,0.5-4.9c-0.4-2.9-2.3-4.5-4.6-6.1
				c-0.4-0.3-0.8,0.4-0.4,0.6c4.3,2.9,4.8,6.5,3.4,11.3c-0.7,2.3-2,4.3-1.5,6.7C194.7,60.8,195.4,60.6,195.3,60.2L195.3,60.2z"/>
		</g>
	</g>
	<g>
		<g>
			<path class="st1" d="M195,42.4c0-0.5-0.1-1-0.1-1.5c0-0.5-0.8-0.5-0.8,0c0,0.5,0.1,1,0.1,1.5C194.2,42.9,195,42.9,195,42.4
				L195,42.4z"/>
		</g>
	</g>
	<g>
		<g>
			<path class="st1" d="M193.8,42.9c-0.8,0.4-1.6,0.6-2.4,0.7c-0.5,0-0.5,0.8,0,0.8c1,0,1.9-0.3,2.8-0.8
				C194.6,43.4,194.2,42.7,193.8,42.9L193.8,42.9z"/>
		</g>
	</g>
	<g>
		<g>
			<path class="st1" d="M196.4,45.1c0.1-0.9,0.3-1.8,0.4-2.7c0.1-0.5-0.6-0.7-0.7-0.2c-0.1,0.9-0.3,1.8-0.4,2.7
				C195.6,45.4,196.4,45.6,196.4,45.1L196.4,45.1z"/>
		</g>
	</g>
	<g>
		<g>
			<path class="st1" d="M196.7,45.7c-1.1,0.1-2.1,0.3-3.2,0.5c-0.5,0.1-0.3,0.8,0.2,0.7c1-0.2,2-0.4,3-0.5
				C197.2,46.5,197.2,45.7,196.7,45.7L196.7,45.7z"/>
		</g>
	</g>
	<g>
		<g>
			<path class="st1" d="M197.6,48.3c0.7-0.7,1.4-1.5,2-2.3c0.3-0.4-0.4-0.8-0.6-0.4c-0.6,0.8-1.2,1.5-1.9,2.1
				C196.7,48.1,197.3,48.7,197.6,48.3L197.6,48.3z"/>
		</g>
	</g>
	<g>
		<g>
			<path class="st1" d="M196.2,49.9c-0.5,0.4-1.2,0.4-1.6,0c-0.4-0.3-0.9,0.2-0.5,0.5c0.8,0.7,1.9,0.6,2.7,0
				C197.1,50.1,196.6,49.6,196.2,49.9L196.2,49.9z"/>
		</g>
	</g>
	<g>
		<g>
			<path class="st1" d="M196.7,53.1c1.1-0.4,2.1-1,3-1.8c0.4-0.3-0.2-0.9-0.5-0.5c-0.8,0.7-1.6,1.3-2.6,1.6
				C196,52.6,196.2,53.3,196.7,53.1L196.7,53.1z"/>
		</g>
	</g>
	<g>
		<g>
			<path class="st1" d="M196.3,54.7c-0.8-0.6-1.5-1.3-2.1-2.1c-0.3-0.4-0.8,0.2-0.5,0.5c0.6,0.8,1.3,1.5,2.1,2.1
				C196.1,55.5,196.6,55,196.3,54.7L196.3,54.7z"/>
		</g>
	</g>
	<g>
		<g>
			<path class="st1" d="M187.6,56.8c0.8,0.1,1.1,0.9,0.7,1.5c-0.4,0.7-1.2,0.8-2,0.7c-0.8-0.2-1.6-1-0.7-1.7
				C186.1,56.8,187,56.9,187.6,56.8c0.5,0.1,0.5-0.7,0-0.7c-1.2,0-2.6,0.1-3.1,1.4c-0.5,1.2,0.7,2.1,1.8,2.3
				c1.1,0.2,2.3-0.2,2.7-1.3c0.4-1-0.1-2.2-1.2-2.4C187.3,56,187.1,56.8,187.6,56.8L187.6,56.8z"/>
		</g>
	</g>
	<g>
		<g>
			<path class="st1" d="M187.5,65.5c-0.9,0.8-2.6,0.9-3.7,0.9c-1.8,0-1.8-1.5-2.2-2.9c-0.3-0.9-1.7-0.5-1.4,0.4c0.5,1.8,0.8,3.8,3,4
				c1.7,0.2,4.1-0.2,5.4-1.4C189.3,65.9,188.2,64.8,187.5,65.5L187.5,65.5z"/>
		</g>
	</g>
	<g>
		<g>
			<path class="st1" d="M188.4,64.8c-0.3-0.3-0.5-0.6-0.5-1.1c0-0.5-0.7-0.5-0.8,0c0,0.6,0.1,1.2,0.5,1.8c0.3,0.4,0.9,0,0.6-0.4
				c-0.3-0.4-0.4-0.9-0.4-1.4c-0.3,0-0.5,0-0.8,0c0,0.6,0.3,1,0.6,1.5C188,65.6,188.7,65.2,188.4,64.8L188.4,64.8z"/>
		</g>
	</g>
	<g>
		<g>
			<path class="st1" d="M196,63.7c-2.3-0.9-4.2,0-6.3,1c-0.9,0.4-0.1,1.7,0.8,1.3c1.7-0.8,3.2-1.6,5.1-0.8
				C196.5,65.5,196.9,64.1,196,63.7L196,63.7z"/>
		</g>
	</g>
	<g>
		<g>
			<path class="st1" d="M191.5,55.5c0.8,1.1,0.8,2.4,0.2,3.5c-0.2,0.4,0.4,0.8,0.6,0.4c0.7-1.4,0.7-3-0.2-4.3
				C191.8,54.7,191.2,55.1,191.5,55.5L191.5,55.5z"/>
		</g>
	</g>
	<g>
		<g>
			<path class="st1" d="M190.5,64.5c-1-0.3-2,0-2.8,0.7c-0.7,0.6,0.3,1.7,1.1,1.1c0.4-0.3,0.9-0.4,1.4-0.3
				C191.1,66.2,191.5,64.8,190.5,64.5L190.5,64.5z"/>
		</g>
	</g>
	<g>
		<g>
			<path class="st1" d="M182.7,66.7c-0.6-0.5-1.1-0.5-1.8-0.5c-1.2,0.1-2.2,0.2-3.3-0.4c-0.4-0.2-0.8,0.4-0.4,0.6
				c0.7,0.4,1.4,0.6,2.1,0.6c0.9,0,2.1-0.5,2.9,0.1C182.5,67.5,183,67,182.7,66.7L182.7,66.7z"/>
		</g>
	</g>
	<g>
		<g>
			<path class="st1" d="M178.3,61.7c0.7,0.8-1.1,4-1.5,4.6c-1,1.6-2.1,3-4.4,3.1c-2.5,0.1-5.3-1.2-6.8-3.1c-2.8-3.3-0.6-7.1,3.2-8.1
				c2.4-0.7,5.8,0.4,8.2,0.8c0.5,0.1,0.7-0.6,0.2-0.7c-4.6-0.8-8.2-2-12.1,1.2c-3,2.4-1.7,6.3,1.1,8.4c2.3,1.8,6.2,3.1,8.9,1.5
				c1.7-1.1,5.4-6.3,3.8-8.3C178.6,60.8,178,61.4,178.3,61.7L178.3,61.7z"/>
		</g>
	</g>
	<g>
		<g>
			<path class="st1" d="M177,54.9c0.3,0.2-3.1,1.8-3.4,1.9c-1.2,0.3-2.5,0.2-3.6-0.1c-3.3-1-4-5-3-7.9c2.2-6.7,13.6-0.2,10.3,5.6
				c-0.2,0.4,0.4,0.8,0.6,0.4c3.8-6.7-8.9-13.9-11.6-6.6c-1.2,3.3-0.5,7.7,3.2,9.1c1.8,0.7,3.8,0.6,5.6-0.2c1-0.4,2.6-1.2,2.7-2.4
				c0-0.1-0.1-0.3-0.2-0.3c-0.1,0-0.1-0.1-0.2-0.1C177,53.9,176.6,54.6,177,54.9L177,54.9z"/>
		</g>
	</g>
	<g>
		<g>
			<path class="st1" d="M164.6,46.5c0.7,0.4,1.5,0.7,2.4,0.9c0.5,0.1,0.7-0.6,0.2-0.7c-0.8-0.1-1.5-0.4-2.2-0.8
				C164.5,45.6,164.1,46.3,164.6,46.5L164.6,46.5z"/>
		</g>
	</g>
	<g>
		<g>
			<path class="st1" d="M170.2,46c3.4-2.8,5.8-9.4,1.1-12.2c-2.4-1.4-4.9-1-6.9,0.8c-2.2,2-4.8,4.8-3.6,8c0.2,0.4,0.9,0.3,0.7-0.2
				c-1-2.8,1.3-5.2,3.2-7c2.2-2.1,5.5-2.4,7.5,0.1c2.5,3.2,0.3,7.8-2.5,10C169.2,45.8,169.8,46.3,170.2,46L170.2,46z"/>
		</g>
	</g>
	<g>
		<g>
			<path class="st1" d="M166.3,50.7c-4.9-1-9,1.4-10.3,6.3c-1.1,4.2,4.1,7.1,7.6,6.7c0.5-0.1,0.5-0.8,0-0.8c-3.3,0.4-7.8-2.1-6.8-6
				c1.1-4.3,5.1-6.4,9.3-5.5C166.6,51.5,166.8,50.8,166.3,50.7L166.3,50.7z"/>
		</g>
	</g>
	<g>
		<g>
			<path class="st1" d="M158.3,61.4c1.5-1.7,0.4-3.6-1.2-4.8c-0.4-0.3-0.8,0.4-0.4,0.6c1.2,0.9,2.2,2.3,1,3.6
				C157.4,61.2,157.9,61.8,158.3,61.4L158.3,61.4z"/>
		</g>
	</g>
	<g>
		<g>
			<path class="st1" d="M170.1,50.9c1.1-0.1,1.3,1.2,1,2c-0.3,0.8-1.4,0.9-2.2,0.7c-0.8-0.2-1.2-0.9-0.9-1.7
				C168.2,51.1,169.2,50.8,170.1,50.9c0.5,0.2,0.7-0.5,0.2-0.7c-1.2-0.3-2.6,0.2-3,1.5c-0.4,1.3,0.4,2.4,1.7,2.6
				c0.6,0.1,1.3,0.1,1.9-0.1c0.6-0.2,0.9-0.8,1-1.4c0.3-1.2-0.3-2.9-1.8-2.7C169.6,50.2,169.6,51,170.1,50.9L170.1,50.9z"/>
		</g>
	</g>
	<g>
		<g>
			<path class="st1" d="M166.8,33.7c0.9,2.9-2.8,3.7-4.8,3.9c-0.5,0-0.5,0.8,0,0.8c1.5-0.2,3.3-0.3,4.5-1.4c1-0.9,1.5-2.1,1.1-3.4
				C167.4,33,166.6,33.2,166.8,33.7L166.8,33.7z"/>
		</g>
	</g>
	<g>
		<g>
			<path class="st1" d="M166.6,50.2c-0.9-6.6-5.7-8-10.8-10.7c-4.1-2.2-8.5,0.2-11.2,3.6c-1.8,2.3-4.2,5.8-0.4,7.4
				c1.9,0.9,3.1,0.1,4.5-1.4c2.5-2.6,7.9-6.5,11.7-7.2c0.5-0.1,0.3-0.8-0.2-0.7c-3.2,0.5-5.5,2.3-8.3,3.9c-0.4,0.3-2.3,1.8-2.7,1.9
				c-2.2,0.8-6.3,0.8-4.9-2.4c1-2.2,3.9-4.6,6.3-5.1c3.7-0.8,4.5,1.2,6.9,1.9c4.6,1.5,7.6,3.8,8.3,8.8
				C166,50.9,166.7,50.7,166.6,50.2L166.6,50.2z"/>
		</g>
	</g>
	<g>
		<g>
			<path class="st1" d="M166.2,49.9c-1.8-0.6-3.3-1.5-4.8-2.6c-1.5-1.1-3.4-2.3-4.1-4.2c-0.2-0.5-0.9-0.3-0.7,0.2
				c0.6,1.9,2.2,3,3.7,4.1c1.8,1.4,3.6,2.6,5.7,3.2C166.5,50.7,166.7,50,166.2,49.9L166.2,49.9z"/>
		</g>
	</g>
	<g>
		<g>
			<path class="st1" d="M164.6,47.7c-0.5-0.2-0.9-1.1-1.2-1.6c-0.3-0.4-0.6-0.8-1-1.1c-0.8-0.7-1.7-1.1-2.7-1.4
				c-0.5-0.1-0.7,0.6-0.2,0.7c1.2,0.3,2.3,1,3.1,2c0.6,0.7,0.8,1.7,1.7,2.1C164.9,48.6,165.1,47.8,164.6,47.7L164.6,47.7z"/>
		</g>
	</g>
	<g>
		<g>
			<path class="st1" d="M155.6,40.1c-2.1,0.7-4.1,1.4-5.9,2.7c-1.7,1.2-3.2,2.8-4.5,4.4c-0.3,0.4,0.2,0.9,0.5,0.5
				c1.3-1.6,2.7-3.1,4.4-4.3c1.7-1.2,3.8-1.9,5.8-2.6C156.3,40.7,156.1,40,155.6,40.1L155.6,40.1z"/>
		</g>
	</g>
	<g>
		<g>
			<path class="st1" d="M152.9,41c-1.2,0.4-2.4,0.5-3.6,0.3c-0.5-0.1-0.7,0.7-0.2,0.7c1.4,0.2,2.7,0.1,4-0.3
				C153.5,41.6,153.3,40.8,152.9,41L152.9,41z"/>
		</g>
	</g>
	<g>
		<g>
			<path class="st1" d="M148.4,43.4c-1,0.1-1.9,0.3-2.9,0.4c-0.5,0.1-0.3,0.8,0.2,0.7c1-0.1,1.9-0.3,2.9-0.4
				C149,44.1,148.8,43.4,148.4,43.4L148.4,43.4z"/>
		</g>
	</g>
	<g>
		<g>
			<path class="st1" d="M148.3,44c-0.7,1.1-1,2.3-0.8,3.6c0.1,0.5,0.8,0.3,0.7-0.2c-0.2-1.1,0.1-2.1,0.7-3
				C149.2,44,148.5,43.6,148.3,44L148.3,44z"/>
		</g>
	</g>
	<g>
		<g>
			<path class="st1" d="M152,41.9c-0.2,0.6-0.5,1.2-0.7,1.8c-0.2,0.4,0.5,0.6,0.7,0.2c0.2-0.6,0.5-1.2,0.7-1.8
				C152.9,41.6,152.1,41.4,152,41.9L152,41.9z"/>
		</g>
	</g>
	<g>
		<g>
			<path class="st1" d="M159.6,43.7c-0.2-0.4-0.3-0.9-0.5-1.3c-0.2-0.5-0.9-0.3-0.7,0.2c0.2,0.4,0.3,0.9,0.5,1.3
				C159.1,44.3,159.8,44.1,159.6,43.7L159.6,43.7z"/>
		</g>
	</g>
	<g>
		<g>
			<path class="st1" d="M159.2,44.1c0.5,0,0.5-0.8,0-0.8C158.7,43.4,158.7,44.1,159.2,44.1L159.2,44.1z"/>
		</g>
	</g>
	<g>
		<g>
			<path class="st1" d="M159.5,44.5c0.5,0,0.5-0.8,0-0.8C159.1,43.8,159,44.5,159.5,44.5L159.5,44.5z"/>
		</g>
	</g>
</g>
<g>
	<g>
		<g>
			<path class="st1" d="M536.1,114c1.3-8.5-0.5-17.9,2.9-26c0.4-0.9-1.1-1.3-1.4-0.4c-3.3,8.1-1.5,17.4-2.9,26
				C534.5,114.5,536,114.9,536.1,114L536.1,114z"/>
		</g>
	</g>
	<g>
		<g>
			<path class="st1" d="M552.2,95.2c-2-5.3-4.2-11.4-9.1-14.8c-2-1.3-5.5-2.7-6.9,0c-1.5,2.9,2.4,9.3,4.5,11.2
				c1.7,1.6,4,2.4,5.9,3.8c2.7,1.9,4.2,5.3,6.9,7.1c7.5,4.9,3.5-13.4,2.5-16c-2-4.9-12.8-19.3-13.4-6.3c0,0.5,0.7,0.5,0.8,0
				c-0.7-2.8,0.3-3.7,3-2.9c1.6-0.7,2.9-0.4,3.7,0.9c1,0.8,1.9,2.3,2.6,3.3c1.7,2.7,3,5.6,3.8,8.7c0.7,2.7,1.4,6.2,0.7,9
				c-1.5,6-6.4-1.1-8-2.7c-3.8-3.9-10.8-5.5-11.6-11.9c-1-1.4-0.6-2.4,1.1-3.2c1.3-2.5,3-2.5,5.1,0.2c1.4,1.1,2.5,2.6,3.4,4.1
				c1.9,2.9,3.1,6.2,4.3,9.4C551.7,95.9,552.4,95.7,552.2,95.2L552.2,95.2z"/>
		</g>
	</g>
	<g>
		<g>
			<path class="st1" d="M536,102.6c0.5,0,0.5-0.8,0-0.8C535.5,101.9,535.5,102.6,536,102.6L536,102.6z"/>
		</g>
	</g>
	<g>
		<g>
			<path class="st1" d="M536.1,100.3c3.1-2.6,7.3-1.7,9.8,1.2c1,1.2,1.7,2.7,2.2,4.2c0.2,0.5,0.4,1.1,0.5,1.6
				c0.1,0.5,0.2,1.1,0.3,1.6c-1.2,0.8-2,0.8-2.3-0.1c-1.2-1.3-1.4-2.8-3.2-3.8c-2.2-1.2-4.9,0.2-6.7-1.8c-0.3-0.3-0.9,0.2-0.5,0.5
				c1.2,1.2,2.3,1.3,4,1.3c1.6,0,3,0.3,4.2,1.6c1,1,1.3,2.4,2.1,3.5c1.5,2,3.2,1,3.2-1.3c0-6.8-7.7-14.6-14.1-9.2
				C535.2,100,535.8,100.6,536.1,100.3L536.1,100.3z"/>
		</g>
	</g>
	<g>
		<g>
			<path class="st1" d="M536.5,101.9c1.2-1.2,4.3,0.2,5.5,0.7c1.4,0.6,2.6,1.4,3.9,2.1c0.4,0.2,0.8-0.4,0.4-0.6c-2-1.2-4-2.4-6.3-3
				c-1.3-0.3-3-0.7-4,0.3C535.7,101.7,536.2,102.2,536.5,101.9L536.5,101.9z"/>
		</g>
	</g>
	<g>
		<g>
			<path class="st1" d="M539.7,100.8c0.3-0.5,0.8-0.9,1.5-0.9c0.5,0,0.5-0.8,0-0.8c-0.9,0-1.6,0.5-2.1,1.3
				C538.8,100.8,539.5,101.2,539.7,100.8L539.7,100.8z"/>
		</g>
	</g>
	<g>
		<g>
			<path class="st1" d="M540.1,102.2c0.1,0.2,0.3,0.4,0.4,0.6c0.3,0.4,0.9,0,0.6-0.4c-0.1-0.2-0.3-0.4-0.4-0.6
				C540.5,101.4,539.8,101.8,540.1,102.2L540.1,102.2z"/>
		</g>
	</g>
	<g>
		<g>
			<path class="st1" d="M542.9,102.8c0.4-0.4,0.7-0.7,1.1-1.1c0.3-0.3-0.2-0.9-0.5-0.5c-0.4,0.4-0.7,0.7-1.1,1.1
				C542,102.6,542.6,103.1,542.9,102.8L542.9,102.8z"/>
		</g>
	</g>
	<g>
		<g>
			<path class="st1" d="M544.8,103.6c0.4,0.1,0.8,0,1.2-0.2c0.4-0.3,0-0.9-0.4-0.6c-0.2,0.1-0.4,0.2-0.6,0.2
				C544.5,102.8,544.3,103.5,544.8,103.6L544.8,103.6z"/>
		</g>
	</g>
	<g>
		<g>
			<path class="st1" d="M545.4,104.3c0.3,0.8,0.6,1.6,1,2.4c0.2,0.4,0.9,0.2,0.7-0.2c-0.3-0.8-0.6-1.6-1-2.4
				C546,103.6,545.2,103.8,545.4,104.3L545.4,104.3z"/>
		</g>
	</g>
	<g>
		<g>
			<path class="st1" d="M548.6,76.6c3.5-3.5,6.8-7,10-10.8c1.7-2.1,3.3-4.2,2.8-7.1c-0.8-4-6-7.6-9.7-4.8c-1.1,0.8-1.4,2-2.1,3.1
				c-2.7,4-8.8,7.1-11.9,1.2c-0.8-1.6-2.5-8-0.9-9.7c1.1-0.1,2.2-0.3,3.3-0.4c0.2,0.4,0.4,0.8,0.6,1.2c0.4,0.3,0.6,0.8,1,1.1
				c1.6,1.2,3.4,0.8,5.1-0.1c0.4-0.2,0.7-0.6,1.1-0.8c2.2-1.5,5.3-1.6,7.8-0.1c2.8,1.7,3.9,6.3,4.5,9.2c0.2,0.9,1.6,0.5,1.4-0.4
				c-1.1-5.5-5.6-14.8-12.7-11.4c-0.6,0.3-2.7,2.1-2.9,2.2c-2,0.4-4-2-5.2-2.9c-0.5-0.4-0.9-1-1.6-1.2c-2.8-0.7-3.7,2.3-4,4.4
				c-0.9,5.7,1.7,15.7,9.3,13.6c1.6-0.5,3.3-1.6,4.6-2.7c0.6-0.6,1-1.3,1.5-1.9c0.2-0.5,0.5-0.9,0.7-1.4c5.4-3.1,8-2.4,7.7,2.1
				c0.6,3.4,0,3.8-1.9,6.2c-0.9,1.1-1.9,2.2-2.9,3.3c-2.1,2.3-4.3,4.6-6.5,6.9C546.8,76.3,547.9,77.3,548.6,76.6L548.6,76.6z"/>
		</g>
	</g>
	<g>
		<g>
			<path class="st1" d="M538.4,49.4c0.4,2.5,1.2,7.6,4.8,7.4c1.1,0,1.9-0.8,2.7-1.6c3-3.1,8.7-7.5,11.7-0.5c0.2,0.4,0.8,0.1,0.6-0.4
				c-1.2-2.8-3.3-4.6-6.5-4c-1.5,0.3-3.3,1.2-4.5,2.2c-1.9,1.6-0.8,1.8-4.2,1.6c-2.2,0.7-3.4,0-3.5-2.3c-0.2-0.9-0.4-1.8-0.5-2.7
				C539.1,48.7,538.4,48.9,538.4,49.4L538.4,49.4z"/>
		</g>
	</g>
	<g>
		<g>
			<path class="st1" d="M536.8,52.1c0.9,0.4,1.8,0.7,2.7,1.1c0.4,0.2,0.6-0.5,0.2-0.7c-0.9-0.4-1.8-0.7-2.7-1.1
				C536.6,51.2,536.4,51.9,536.8,52.1L536.8,52.1z"/>
		</g>
	</g>
	<g>
		<g>
			<path class="st1" d="M540.7,53.4c0.1-0.7,0-1.4-0.1-2.2c-0.1-0.5-0.8-0.3-0.7,0.2c0.1,0.7,0.1,1.3,0.1,2
				C539.9,53.9,540.7,53.9,540.7,53.4L540.7,53.4z"/>
		</g>
	</g>
	<g>
		<g>
			<path class="st1" d="M539.5,58.2c0.5-0.5,1.1-1,1.6-1.5c0.4-0.3-0.2-0.9-0.5-0.5c-0.5,0.5-1.1,1-1.6,1.5
				C538.6,57.9,539.1,58.5,539.5,58.2L539.5,58.2z"/>
		</g>
	</g>
	<g>
		<g>
			<path class="st1" d="M542.1,55.2c0.6-0.8,0.6-1.8,0.4-2.8c-0.1-0.5-0.8-0.3-0.7,0.2c0.2,0.8,0.1,1.5-0.3,2.2
				C541.2,55.2,541.8,55.6,542.1,55.2L542.1,55.2z"/>
		</g>
	</g>
	<g>
		<g>
			<path class="st1" d="M542.4,57.1c0.1,1.2-0.1,2.3-0.9,3.2c-0.3,0.4,0.4,0.8,0.6,0.4c0.8-1,1-2.3,1-3.6
				C543.1,56.6,542.3,56.6,542.4,57.1L542.4,57.1z"/>
		</g>
	</g>
	<g>
		<g>
			<path class="st1" d="M544.8,55.4c-0.1-0.8-0.3-1.6-0.4-2.5c-0.1-0.5-0.8-0.3-0.7,0.2c0.1,0.8,0.3,1.6,0.4,2.5
				C544.2,56.1,544.9,55.9,544.8,55.4L544.8,55.4z"/>
		</g>
	</g>
	<g>
		<g>
			<path class="st1" d="M545.5,55.6c0.2,1,0.3,2,0.5,3c0.1,0.5,0.8,0.3,0.7-0.2c-0.2-1-0.3-2-0.5-3C546.1,55,545.4,55.2,545.5,55.6
				L545.5,55.6z"/>
		</g>
	</g>
	<g>
		<g>
			<path class="st1" d="M547.2,52.9c-0.1-0.5-0.1-1-0.2-1.4c0-0.5-0.8-0.5-0.8,0c0.1,0.5,0.1,1,0.2,1.4
				C546.5,53.4,547.2,53.4,547.2,52.9L547.2,52.9z"/>
		</g>
	</g>
	<g>
		<g>
			<path class="st1" d="M547.9,53.9c0.1,0.8,0.3,1.6,0.4,2.5c0.1,0.5,0.8,0.3,0.7-0.2c-0.1-0.8-0.3-1.6-0.4-2.5
				C548.5,53.2,547.8,53.4,547.9,53.9L547.9,53.9z"/>
		</g>
	</g>
	<g>
		<g>
			<path class="st1" d="M549.8,51.6c0.1-0.6,0-1.2-0.1-1.7c-0.1-0.5-0.8-0.3-0.7,0.2c0.1,0.5,0.2,1,0.1,1.5
				C549.1,52.1,549.8,52.1,549.8,51.6L549.8,51.6z"/>
		</g>
	</g>
	<g>
		<g>
			<path class="st1" d="M566.7,46.1c1.6,3.6,4.6,7.1,8.6,8.1c3,0.7,5.8-0.5,6.9-3.4c1.6-4,0.4-9.8-2.7-12.8c-3.9-3.9-8.5-1-12,1.9
				c-0.4,0.3,0.2,0.8,0.5,0.5c1.7-1.4,3.6-3.1,5.8-3.5c3-0.6,5.3,1.3,6.7,3.8c1.7,3,2.5,8,0.3,11c-4.3,5.9-11.7-1.9-13.6-6
				C567.2,45.3,566.5,45.7,566.7,46.1L566.7,46.1z"/>
		</g>
	</g>
	<g>
		<g>
			<path class="st1" d="M561.4,59.8c8.1-6.2,0.3-16.9-2.3-24c-1.3-3.4-2-7.1-0.3-10.5c2.3-4.5,10.1-6.3,10.2,0.6
				c0,2.4-1.3,4.2-1.9,6.5c-0.7,2.9,0.9,6.6-0.3,9.1c-0.4,0.9,0.9,1.6,1.3,0.8c1.6-3.6-0.5-5.6,0.4-9.5c0.8-3.4,2.3-4.5,1.8-8.1
				c-0.6-4.5-4.5-6.3-8.7-4.5c-4.5,1.9-6,7.3-5.3,11.7c1.2,7.4,12.2,20.4,4.2,26.5C559.9,59.1,560.7,60.4,561.4,59.8L561.4,59.8z"/>
		</g>
	</g>
	<g>
		<g>
			<path class="st1" d="M567.1,46.6c-0.7,1.1-1.6,1.9-2.2,3.2c-0.5,1.1-0.8,2.2-1,3.4c-0.1,0.5,0.7,0.7,0.7,0.2
				c0.2-1.2,0.5-2.4,1.1-3.6c0.5-1,1.4-1.8,2-2.8C568,46.6,567.3,46.2,567.1,46.6L567.1,46.6z"/>
		</g>
	</g>
	<g>
		<g>
			<path class="st1" d="M565.1,47.8c0.8-8-9-15.6,0-22.6c0.4-0.3-0.2-0.8-0.5-0.5c-2.9,2.3-4.2,4.6-3.9,8.4c0.3,4.9,4.2,10,3.7,14.8
				C564.3,48.2,565.1,48.2,565.1,47.8L565.1,47.8z"/>
		</g>
	</g>
	<g>
		<g>
			<path class="st1" d="M563.5,25.2c0-0.6-0.1-1.2-0.1-1.9c0-0.5-0.8-0.5-0.8,0c0,0.6,0.1,1.2,0.1,1.9
				C562.7,25.6,563.5,25.6,563.5,25.2L563.5,25.2z"/>
		</g>
	</g>
	<g>
		<g>
			<path class="st1" d="M563.6,26.6c0.8,0.6,1.8,1.1,2.9,1.2c0.5,0.1,0.7-0.7,0.2-0.7c-1-0.1-1.9-0.6-2.7-1.2
				C563.6,25.7,563.3,26.3,563.6,26.6L563.6,26.6z"/>
		</g>
	</g>
	<g>
		<g>
			<path class="st1" d="M562.2,28.2c-0.3-1.1-0.5-2.3-0.8-3.4c-0.1-0.5-0.8-0.3-0.7,0.2c0.3,1.1,0.5,2.3,0.8,3.4
				C561.6,28.8,562.3,28.6,562.2,28.2L562.2,28.2z"/>
		</g>
	</g>
	<g>
		<g>
			<path class="st1" d="M561.2,30c1.1,0.2,2.2,0.6,3.3,1c0.5,0.2,0.6-0.6,0.2-0.7c-1.1-0.4-2.1-0.7-3.3-1
				C560.9,29.1,560.7,29.9,561.2,30L561.2,30z"/>
		</g>
	</g>
	<g>
		<g>
			<path class="st1" d="M561.2,31.7c-0.8-0.9-1.5-1.9-2.2-3c-0.3-0.4-0.9,0-0.6,0.4c0.7,1.1,1.4,2.1,2.3,3.1
				C560.9,32.6,561.5,32.1,561.2,31.7L561.2,31.7z"/>
		</g>
	</g>
	<g>
		<g>
			<path class="st1" d="M561.8,35.1c0.7,0.8,1.9,1.1,2.8,0.3c0.3-0.3-0.2-0.9-0.5-0.5c-0.5,0.5-1.3,0.2-1.7-0.3
				C562,34.2,561.5,34.7,561.8,35.1L561.8,35.1z"/>
		</g>
	</g>
	<g>
		<g>
			<path class="st1" d="M562.4,37.7c-1.2-0.6-2.1-1.5-3-2.5c-0.3-0.4-0.8,0.2-0.5,0.5c0.9,1,1.9,1.9,3.1,2.6
				C562.4,38.6,562.8,38,562.4,37.7L562.4,37.7z"/>
		</g>
	</g>
	<g>
		<g>
			<path class="st1" d="M563.3,41.2c0.8-0.7,1.4-1.6,2-2.5c0.2-0.4-0.4-0.8-0.6-0.4c-0.5,0.9-1.1,1.7-1.8,2.4
				C562.5,41,563,41.5,563.3,41.2L563.3,41.2z"/>
		</g>
	</g>
	<g>
		<g>
			<path class="st1" d="M571.8,43.4c-1.4,0.1-1.6,1.6-1.2,2.7c0.5,1.3,1.7,2.2,3,2c1.3-0.2,2-1.3,1.6-2.5
				C574.7,44.1,573.3,43.6,571.8,43.4c-0.4,0.1-0.4,0.8,0.1,0.8c0.8,0.1,1.7,0.2,2.2,0.9c0.6,0.7,0.7,1.8-0.3,2.1
				c-0.8,0.3-1.7-0.1-2.2-0.8c-0.4-0.5-0.9-2.1,0.2-2.3C572.2,44.1,572.2,43.4,571.8,43.4L571.8,43.4z"/>
		</g>
	</g>
	<g>
		<g>
			<path class="st1" d="M572,56.4c1.2,1.4,3.9,2.3,5.8,2.2c2.4-0.1,2.3-2.9,2.5-4.6c0.1-0.9-1.3-1.4-1.4-0.4
				c-0.1,0.7-0.2,1.5-0.3,2.3c-0.2,1-0.4,1.3-1.5,1.2c-1.4-0.2-3.1-0.7-4-1.8C572.4,54.6,571.4,55.7,572,56.4L572,56.4z"/>
		</g>
	</g>
	<g>
		<g>
			<path class="st1" d="M572.7,54.8c0.3-0.6,0.5-1.1,0.5-1.7c-0.2,0-0.5,0.1-0.7,0.1c0.1,0.6,0,1.2-0.2,1.7
				c-0.2,0.4,0.4,0.8,0.6,0.4c0.4-0.7,0.4-1.5,0.3-2.3c-0.1-0.4-0.8-0.3-0.7,0.1c0,0.5-0.1,0.9-0.4,1.4
				C571.8,54.8,572.5,55.2,572.7,54.8L572.7,54.8z"/>
		</g>
	</g>
	<g>
		<g>
			<path class="st1" d="M564.7,53.6c1.9-0.8,3.7,0.8,5.2,1.8c0.8,0.5,1.6-0.8,0.8-1.3c-2.1-1.3-4.2-2.9-6.7-1.8
				C563.1,52.7,563.9,54,564.7,53.6L564.7,53.6z"/>
		</g>
	</g>
	<g>
		<g>
			<path class="st1" d="M567.1,41.6c-0.9,1.7-0.6,3.7,0.2,5.3c0.2,0.4,0.9,0.1,0.6-0.4c-0.7-1.4-1-3.1-0.2-4.6
				C568,41.6,567.3,41.2,567.1,41.6L567.1,41.6z"/>
		</g>
	</g>
	<g>
		<g>
			<path class="st1" d="M570.3,55.3c0.6-0.1,1.1,0.2,1.5,0.6c0.7,0.7,1.7-0.4,1.1-1.1c-0.8-0.8-1.8-1.3-3-1
				C568.9,54.1,569.3,55.5,570.3,55.3L570.3,55.3z"/>
		</g>
	</g>
	<g>
		<g>
			<path class="st1" d="M578.7,58c0.6-0.7,2,0.1,2.7,0.2c0.8,0.1,1.6-0.1,2.3-0.6c0.4-0.2,0-0.9-0.4-0.6c-1.3,0.8-2.3,0.3-3.6,0.1
				c-0.6-0.1-1.2,0-1.6,0.4C577.9,57.8,578.4,58.3,578.7,58L578.7,58z"/>
		</g>
	</g>
	<g>
		<g>
			<path class="st1" d="M581.5,50.9c-1,0.9,0.1,2.6,0.5,3.6c0.9,2.3,1.9,4.8,3.7,6.6c2.5,2.6,6.6,2.2,9.3-0.1
				c2.7-2.3,3.7-6.7,1.5-9.6c-1.3-1.7-3.4-3.6-5.4-4.3c-2.5-0.8-5.6,0-8.1,0.3c-0.5,0-0.5,0.8,0,0.8c3.3-0.3,6.8-1.3,9.7,0.8
				c3.3,2.3,5.5,6,3.1,9.9c-1.8,3-6.5,4.5-9.4,2c-1.3-1.1-2.1-2.8-2.8-4.3c-0.2-0.5-2.3-4.5-1.6-5.1
				C582.4,51.1,581.8,50.6,581.5,50.9L581.5,50.9z"/>
		</g>
	</g>
	<g>
		<g>
			<path class="st1" d="M582.2,42.2c-0.1,0-0.1,0.1-0.2,0.1c-0.1,0.1-0.2,0.2-0.2,0.4c0.5,3.3,6.3,5.1,9,3.9
				c4.1-1.8,3.1-8.1,1.8-11.4c-1.4-3.5-5.1-5-8.5-3c-3.6,2.1-4.4,6.9-2.5,10.4c0.2,0.4,0.9,0,0.6-0.4c-1.6-3-1-7.2,2-9.2
				c3.4-2.3,6.8-0.3,8,3.2c0.8,2.5,1.6,6.8-0.5,8.9c-1.3,1.3-3.4,1.3-5.1,0.7c-0.5-0.2-4.7-2.7-4.1-3.1
				C582.9,42.6,582.6,41.9,582.2,42.2L582.2,42.2z"/>
		</g>
	</g>
	<g>
		<g>
			<path class="st1" d="M594,33.1c-0.6,0.4-1.3,0.7-2,0.7c-0.5,0.1-0.5,0.8,0,0.8c0.9-0.1,1.7-0.4,2.4-0.8
				C594.8,33.5,594.4,32.8,594,33.1L594,33.1z"/>
		</g>
	</g>
	<g>
		<g>
			<path class="st1" d="M589.1,31.9c-2.8-2.9-5.8-8.4-4-12.5c3.4-8,13.2,4.6,12.2,9.5c-0.1,0.5,0.6,0.7,0.7,0.2
				c0.8-4-2.1-7.8-4.7-10.6c-1.9-2.1-4.6-3.4-7.2-1.6c-5.2,3.6-0.7,12.2,2.5,15.5C589,32.8,589.5,32.3,589.1,31.9L589.1,31.9z"/>
		</g>
	</g>
	<g>
		<g>
			<path class="st1" d="M593.4,39.7c4.2-0.6,7.5,2.1,9.2,5.8c1,2.1,1.8,4,0.9,6.3c-1,2.5-3.5,3.7-6,3.1c-0.5-0.1-0.7,0.6-0.2,0.7
				c4.5,1.1,8.5-3,7.2-7.5c-1.5-5.2-5.5-9.8-11.3-9.1C592.7,39.1,592.9,39.8,593.4,39.7L593.4,39.7z"/>
		</g>
	</g>
	<g>
		<g>
			<path class="st1" d="M603.2,53c-1.2-1.7-0.9-3.4,0.6-4.8c0.4-0.3-0.2-0.9-0.5-0.5c-1.7,1.5-2.1,3.8-0.7,5.7
				C602.9,53.7,603.5,53.4,603.2,53L603.2,53z"/>
		</g>
	</g>
	<g>
		<g>
			<path class="st1" d="M589.3,37.9c-1.6-0.4-2,1.5-1.8,2.8c0.2,0.8,0.5,1.7,1.2,2.1c0.6,0.4,1.4,0.5,2.1,0.4c1.5-0.2,1.8-1.8,1.4-3
				c-0.5-1.4-1.8-2.4-3.3-2.1c-0.5,0.1-0.3,0.8,0.2,0.7c0.9-0.2,1.7,0.4,2.1,1.2c0.4,0.7,0.7,2-0.3,2.5c-0.8,0.4-2.1-0.1-2.5-0.8
				c-0.3-0.6-0.9-3.2,0.5-2.9C589.6,38.8,589.8,38,589.3,37.9L589.3,37.9z"/>
		</g>
	</g>
	<g>
		<g>
			<path class="st1" d="M589.9,17c-0.6,3.8,3,5.8,6.1,6.6c0.5,0.1,0.7-0.6,0.2-0.7c-2.7-0.6-6.1-2.3-5.6-5.6
				C590.7,16.7,590,16.5,589.9,17L589.9,17z"/>
		</g>
	</g>
	<g>
		<g>
			<path class="st1" d="M593.5,38.4c0.1-6.1,3-9.1,8.5-10.6c3.4-1,6.3-1.7,9.3,1.2c1.8,1.7,3.9,4.4,4.7,6.8c0.1,1.3,0.3,2.6,0.4,3.8
				c-1.3,0-2.6,0-3.9,0c-1.1-0.6-1.8-2.8-2.6-3.8c-0.9-1-1.6-1.4-2.6-2.2c-3-2.1-5.3-4.9-8.9-5.9c-0.5-0.1-0.7,0.6-0.2,0.7
				c3.3,1,8.2,4.9,10.6,7.6c1.4,1.5,3.2,5.6,5.9,5.5c1.5,0,3-1.7,3.2-3.1c0.3-2.5-3-6.5-4.4-8.3c-1.6-2-3.8-4-6.4-4.7
				c-2.3-0.6-3.1,0.1-4.9,1.2c-2.6,1.5-5.1,1.5-7.1,4.1c-1.7,2.2-2.2,5-2.2,7.7C592.8,38.9,593.5,38.9,593.5,38.4L593.5,38.4z"/>
		</g>
	</g>
	<g>
		<g>
			<path class="st1" d="M593.3,38.7c2.1-0.6,3.8-1.9,5.4-3.3c1.5-1.4,3-2.7,3.4-4.9c0.1-0.5-0.6-0.7-0.7-0.2c-0.3,2-1.8,3.2-3.2,4.5
				c-1.5,1.4-3.1,2.6-5.1,3.1C592.7,38.1,592.9,38.8,593.3,38.7L593.3,38.7z"/>
		</g>
	</g>
	<g>
		<g>
			<path class="st1" d="M594.8,36.1c0.9-0.3,1.1-1.5,1.5-2.3c0.7-1.2,1.7-2,3.1-2.3c0.5-0.1,0.3-0.8-0.2-0.7c-1.1,0.2-2,0.8-2.7,1.6
				c-0.4,0.4-0.7,0.9-1,1.4c-0.2,0.5-0.3,1.4-0.9,1.6C594.1,35.5,594.3,36.3,594.8,36.1L594.8,36.1z"/>
		</g>
	</g>
	<g>
		<g>
			<path class="st1" d="M602.7,27.5c2.3,1.2,4.6,2.4,6.5,4.2c1.8,1.7,3.3,3.7,4.8,5.8c0.3,0.4,0.9,0,0.6-0.4c-1.5-2.1-3-4.2-4.9-5.9
				c-1.9-1.8-4.3-3.1-6.6-4.3C602.6,26.7,602.3,27.3,602.7,27.5L602.7,27.5z"/>
		</g>
	</g>
	<g>
		<g>
			<path class="st1" d="M605.6,28.9c1.3,0.6,2.7,1,4.2,0.9c0.5,0,0.5-0.8,0-0.8c-1.3,0.1-2.6-0.2-3.8-0.8
				C605.6,28,605.2,28.7,605.6,28.9L605.6,28.9z"/>
		</g>
	</g>
	<g>
		<g>
			<path class="st1" d="M610.6,32.6c1,0.3,2,0.6,3,0.8c0.5,0.1,0.7-0.6,0.2-0.7c-1-0.3-2-0.6-3-0.8
				C610.4,31.7,610.2,32.4,610.6,32.6L610.6,32.6z"/>
		</g>
	</g>
	<g>
		<g>
			<path class="st1" d="M610.3,32.9c0.8,1.2,1.2,2.6,1.1,4.1c0,0.5,0.7,0.5,0.8,0c0.1-1.6-0.4-3.1-1.2-4.5
				C610.7,32.1,610.1,32.5,610.3,32.9L610.3,32.9z"/>
		</g>
	</g>
	<g>
		<g>
			<path class="st1" d="M606.2,29.6c0.3,0.8,0.6,1.6,1,2.4c0.2,0.4,0.9,0.2,0.7-0.2c-0.3-0.8-0.6-1.6-1-2.4
				C606.7,28.9,606,29.1,606.2,29.6L606.2,29.6z"/>
		</g>
	</g>
	<g>
		<g>
			<path class="st1" d="M599.9,31c0.1-0.5,0.2-1.1,0.3-1.6c0.1-0.5-0.6-0.7-0.7-0.2c-0.1,0.5-0.2,1.1-0.3,1.6
				C599.1,31.3,599.8,31.5,599.9,31L599.9,31z"/>
		</g>
	</g>
	<g>
		<g>
			<path class="st1" d="M599.7,31.3c0.5,0,0.5-0.8,0-0.8C599.2,30.5,599.2,31.3,599.7,31.3L599.7,31.3z"/>
		</g>
	</g>
	<g>
		<g>
			<path class="st1" d="M599.4,31.8c0.5,0,0.5-0.8,0-0.8C598.9,31,598.9,31.8,599.4,31.8L599.4,31.8z"/>
		</g>
	</g>
</g>
<g>
</g>
<g>
</g>
<g>
</g>
<g>
</g>
<g>
</g>
<g>
</g>
<g>
</g>
<g>
</g>
<g>
</g>
<g>
</g>
<g>
</g>
<g>
</g>
<g>
</g>
<g>
</g>
<g>
</g>
</svg>
